<?xml version="1.0" encoding="utf-8"?>
<!-- Generator: Adobe Illustrator 21.0.0, SVG Export Plug-In . SVG Version: 6.00 Build 0)  -->
<svg version="1.1" id="Camada_1" xmlns="http://www.w3.org/2000/svg" xmlns:xlink="http://www.w3.org/1999/xlink" x="0px" y="0px"
	 viewBox="0 0 64 64" style="enable-background:new 0 0 64 64;" xml:space="preserve">
<style type="text/css">
	.st0{fill:#FFFFFF;}
</style>
<g>
	<path class="st0" d="M44,47.7c-0.2-0.1-0.6-0.1-1-0.3c-4.6-2.1-9.2-4.2-13.8-6.3c-1.5-0.7-2.1-2.2-1.4-3.7
		c2.1-4.6,4.2-9.2,6.3-13.8c0.7-1.5,2.2-2,3.7-1.4c4.6,2.1,9.2,4.2,13.8,6.3c1.5,0.7,2,2.2,1.4,3.7c-2.1,4.6-4.2,9.2-6.3,13.8
		C46.2,47.1,45.4,47.6,44,47.7z M37.8,30.5c1.4,0,2.6-1.1,2.6-2.6c0-1.4-1.1-2.6-2.6-2.6c-1.4,0-2.6,1.2-2.6,2.6
		C35.3,29.3,36.4,30.5,37.8,30.5z M37.8,34.8c0,1.4,1.2,2.6,2.6,2.6c1.4,0,2.6-1.2,2.6-2.6c0-1.4-1.2-2.6-2.6-2.6
		C39,32.2,37.8,33.4,37.8,34.8z M45.6,41.7c0-1.4-1.2-2.6-2.6-2.6c-1.4,0-2.6,1.2-2.6,2.6c0,1.4,1.2,2.6,2.6,2.6
		C44.4,44.2,45.6,43.1,45.6,41.7z"/>
	<path class="st0" d="M25.7,40.6c-1.1,0.5-2.1,1-3.2,1.4c-1.3,0.5-2.7-0.2-3.3-1.5c-1.3-2.7-2.6-5.5-3.8-8.2
		c-0.8-1.8-1.7-3.6-2.5-5.3c-0.8-1.6-0.2-3.1,1.4-3.9c4.5-2.1,9-4.2,13.5-6.3c1.6-0.7,3.1-0.2,3.8,1.4c0.5,1,0.9,1.9,1.4,2.9
		c0.2,0.3,0.2,0.6,0,0.9c-2,4.3-3.9,8.5-5.9,12.8c-0.5,1-0.9,2.1-1.4,3.1c-0.4,0.9-0.5,1.8-0.1,2.7C25.7,40.4,25.7,40.5,25.7,40.6z
		 M20.3,36.1c0,1.4,1.1,2.6,2.5,2.6c1.4,0,2.6-1.1,2.6-2.6c0-1.4-1.2-2.6-2.6-2.6C21.5,33.5,20.3,34.6,20.3,36.1z M18.5,29.3
		c1.4,0,2.6-1.2,2.6-2.6c0-1.4-1.2-2.6-2.6-2.6c-1.4,0-2.6,1.2-2.6,2.6C15.9,28.1,17.1,29.3,18.5,29.3z M25.4,22.3
		c0,1.4,1.1,2.6,2.6,2.6c1.4,0,2.6-1.2,2.6-2.6c0-1.4-1.2-2.6-2.6-2.6C26.5,19.7,25.4,20.9,25.4,22.3z"/>
</g>
</svg>
