<?xml version="1.0" encoding="utf-8"?>
<!-- Generator: Adobe Illustrator 21.0.0, SVG Export Plug-In . SVG Version: 6.00 Build 0)  -->
<svg version="1.1" id="Camada_1" xmlns="http://www.w3.org/2000/svg" xmlns:xlink="http://www.w3.org/1999/xlink" x="0px" y="0px"
	 viewBox="0 0 141.3 141" style="enable-background:new 0 0 141.3 141;" xml:space="preserve">
<style type="text/css">
	.st0{fill:#FFFFFF;}
	.st1{fill:#E8DDFF;}
	.st2{fill:url(#SVGID_1_);}
</style>
<g id="icons_4_">
	<g id="XMLID_460_">
		<g id="XMLID_489_">
			<path class="st0" d="M96.6,45.9c-3.6,0-6.5,2.8-6.5,6.5v-13c0-3.6-2.8-6.5-6.5-6.5s-6.5,2.8-6.5,6.5v-6.3c0-3.6-2.8-6.5-6.5-6.5
				s-6.5,2.8-6.5,6.5v6.3c0-3.6-2.8-6.5-6.5-6.5c-3.6,0-6.5,2.8-6.5,6.5v33.4c0-4.9-3.8-8.7-8.7-8.7h-4.1v33.8
				c0,1.8,0.6,3.6,1.8,5.1l7.5,8.9c2.2,2.6,5.7,4.3,9.1,4.3h0.2H66l0,0h18.4c3.4,0,6.9-1.6,9.1-4.3l7.5-8.9c1.2-1.4,1.8-3.2,1.8-5.1
				V52.4C103.1,48.7,100.2,45.9,96.6,45.9z"/>
		</g>
		<g id="XMLID_480_">
			<g id="XMLID_482_">
				<path class="st1" d="M53.9,110.9l-7.5-8.9c-1.2-1.4-1.8-3.2-1.8-5.1V63.5c-0.6-0.2-1.2-0.2-2-0.2h-4.1v33.8
					c0,1.8,0.6,3.6,1.8,5.1l7.5,8.9c2.2,2.6,5.7,4.3,9.1,4.3h0.2H63C59.5,115.2,56.1,113.6,53.9,110.9z"/>
			</g>
		</g>
		<g id="XMLID_461_">
			
				<linearGradient id="SVGID_1_" gradientUnits="userSpaceOnUse" x1="36.4" y1="1978.55" x2="104.9" y2="1978.55" gradientTransform="matrix(1 0 0 1 0 -1908)">
				<stop  offset="0" style="stop-color:#A767FF"/>
				<stop  offset="1" style="stop-color:#F60A9E"/>
			</linearGradient>
			<path class="st2" d="M66,117.4h-9.1c-4,0-8-1.9-10.7-5l-7.5-8.9c-1.5-1.7-2.3-4-2.3-6.4V61.3h6.1c2.5,0,4.9,0.8,6.7,2.3V38.4
				c0-4.8,3.7-8.5,8.5-8.5c1.7,0,3.2,0.5,4.5,1.3c0.5-4.3,4-7.5,8.5-7.5c4.4,0,7.9,3.2,8.4,7.4c1.3-0.7,2.7-1.1,4.3-1.1
				c4.8,0,8.5,3.7,8.5,8.5V44c1.3-0.8,2.8-1.2,4.5-1.2c4.8,0,8.5,3.7,8.5,8.5v45.6c0,2.4-0.8,4.6-2.3,6.4l-7.5,8.9
				c-2.6,3.1-6.6,5-10.7,5h-9.3v-4.1h9.3c2.8,0,5.7-1.4,7.6-3.5l7.5-8.9c0.9-1,1.3-2.3,1.3-3.8V51.2c0-2.5-1.9-4.5-4.5-4.5
				s-4.5,1.9-4.5,4.5v12.4h-4.1V38.4c0-2.5-1.9-4.5-4.5-4.5c-2.1,0-3.7,1.2-4.3,3.1v26.5h-4.3V38.4c0-0.7,0.1-1.3,0.2-1.9v-4.4
				c0-2.5-1.9-4.5-4.5-4.5c-2.5,0-4.5,1.9-4.5,4.5v31.4h-4.1V38.4c0-2.5-1.9-4.5-4.5-4.5c-2.5,0-4.5,1.9-4.5,4.5v42.1h-4.1V72
				c0-3.7-2.9-6.7-6.7-6.7h-2v31.8c0,1.4,0.5,2.7,1.3,3.7l7.5,8.9c1.8,2.2,4.7,3.5,7.6,3.5H66c3.4,0,6.1-2.7,6.1-6.1v-4.5h4.1v4.5
				C76.1,112.9,71.6,117.4,66,117.4z M81.8,99.2h-4.1v-4.1h4.1V99.2z M74.9,99.2h-4.1v-4.1h4.1V99.2z M67.8,99.2h-4.1v-4.1h4.1V99.2
				z M81.2,90.9h-2.5h-1.1h-2V66.7h7.9l0.8,0.8l5.7,6.6v9.6L89.8,84l-6.4,7h-0.6L81.2,90.9z M79.6,87.1h2.1l4.2-4.7v-6.8l-4.1-4.8
				h-2.1L79.6,87.1L79.6,87.1z M70.9,90.7h-4.1v-6.9h-6.1v6.9h-4.1V69.2c0-1.2,1-2.2,2.2-2.2h9.7c1.2,0,2.2,1,2.2,2.2v21.5H70.9z
				 M60.7,79.7h6.1V71h-6.1C60.7,71,60.7,79.7,60.7,79.7z"/>
		</g>
	</g>
</g>
</svg>
