<?xml version="1.0" encoding="utf-8"?>
<!-- Generator: Adobe Illustrator 21.0.0, SVG Export Plug-In . SVG Version: 6.00 Build 0)  -->
<svg version="1.1" id="Camada_1" xmlns="http://www.w3.org/2000/svg" xmlns:xlink="http://www.w3.org/1999/xlink" x="0px" y="0px"
	 viewBox="0 0 141.3 141" style="enable-background:new 0 0 141.3 141;" xml:space="preserve">
<style type="text/css">
	.st0{fill:url(#SVGID_1_);}
	.st1{fill:url(#SVGID_2_);}
	.st2{fill:url(#SVGID_3_);}
</style>
<g id="icons_5_">
	<g id="XMLID_1265_">
		<g id="XMLID_1270_">
			
				<linearGradient id="SVGID_1_" gradientUnits="userSpaceOnUse" x1="42.6" y1="2057" x2="99.6" y2="2057" gradientTransform="matrix(1 0 0 1 0 -1952)">
				<stop  offset="0" style="stop-color:#83E4BF"/>
				<stop  offset="1" style="stop-color:#7AD3D3"/>
			</linearGradient>
			<path class="st0" d="M99.6,115.9h-57V94.1h57V115.9z M45.3,113.3H97V96.7H45.3V113.3z"/>
		</g>
		<g id="XMLID_1267_">
			
				<linearGradient id="SVGID_2_" gradientUnits="userSpaceOnUse" x1="14.8408" y1="2006.5" x2="128.8408" y2="2006.5" gradientTransform="matrix(1 0 0 1 0 -1952)">
				<stop  offset="0" style="stop-color:#83E4BF"/>
				<stop  offset="1" style="stop-color:#7AD3D3"/>
			</linearGradient>
			<path class="st1" d="M128.6,82.7H14.7V30.2c0-2.3,1.6-3.9,3.9-3.9h106.2c2.3,0,3.9,1.6,3.9,3.9L128.6,82.7L128.6,82.7z
				 M17.3,80.1H126v-50c0-0.8-0.5-1.3-1.3-1.3H18.6c-0.8,0-1.3,0.5-1.3,1.3C17.3,30.1,17.3,80.1,17.3,80.1z"/>
		</g>
		<g id="XMLID_1266_">
			
				<linearGradient id="SVGID_3_" gradientUnits="userSpaceOnUse" x1="13.5462" y1="2023.1" x2="130.1462" y2="2023.1" gradientTransform="matrix(1 0 0 1 0 -1952)">
				<stop  offset="0" style="stop-color:#83E4BF"/>
				<stop  offset="1" style="stop-color:#7AD3D3"/>
			</linearGradient>
			<path class="st2" d="M108.7,117.2H34.1V112h7.2V99.6H18.6c-3,0-5.2-2.2-5.2-5.2V30.2c0-3,2.2-5.2,5.2-5.2h106.2
				c3,0,5.2,2.2,5.2,5.2v64.2c0,3-2.2,5.2-5.2,5.2H101V112h7.8v5.2H108.7z M46.6,99.6V112h49.2V99.6 M18.6,84.5v9.8h106.2v-9.8H18.6
				z M18.6,79.4h106.2V30.2H18.6V79.4z M111.3,73.4 M106.1,73.1H104V68h2.1V43.6h-1.8v-5.2h8.5v5.2h-1.6V68h1.3v5.2h-1.3L106.1,73.1
				z M37.8,73.4h-5.2v-30c0-2.7,2.2-4.9,4.9-4.9h15.8c2.7,0,4.9,2.2,4.9,4.9v29.8H53V59.7H37.8V73.4z M37.8,54.5H53V43.6H37.8V54.5z
				 M74.8,73.2h-5.2V43.4c0-2.9,2.3-5.2,5.2-5.2h17.3c2.9,0,5.2,2.3,5.2,5.2v11.1c0,2.9-2.3,5.2-5.2,5.2H74.8V73.2z M74.8,54.5h17.3
				V43.4H74.8V54.5z"/>
		</g>
	</g>
</g>
</svg>
