<?xml version="1.0" encoding="utf-8"?>
<!-- Generator: Adobe Illustrator 21.0.0, SVG Export Plug-In . SVG Version: 6.00 Build 0)  -->
<svg version="1.1" id="Camada_1" xmlns="http://www.w3.org/2000/svg" xmlns:xlink="http://www.w3.org/1999/xlink" x="0px" y="0px"
	 viewBox="0 0 141.3 141" style="enable-background:new 0 0 141.3 141;" xml:space="preserve">
<style type="text/css">
	.st0{fill:#FFFFFF;}
	.st1{fill:#E8DDFF;}
	.st2{fill:#DDCDFF;}
	.st3{fill:url(#SVGID_1_);}
	.st4{fill:#C6ABFF;}
	.st5{fill:#DDE7FF;}
	.st6{fill:url(#SVGID_2_);}
</style>
<g id="icons_7_">
	<g id="XMLID_1292_">
		<g id="XMLID_1300_">
			<path class="st0" d="M97.3,42.2H78.5H78c-1-3.7-2.9-7.2-5.5-9.8c-3.9-3.9-9.2-6.3-15.1-6.3s-11.3,2.5-15.1,6.3S36,41.6,36,47.5
				c0,1.4,0.2,2.9,0.4,4.3c-6.6,0.2-11.9,5.7-11.9,12.3c0,6.8,5.5,12.5,12.5,12.5h65.5c0,0,8.4,0.6,10.9-4.5
				c1.6-3.3,3.3-6.8,3.3-10.6C116.5,50.8,107.9,42.2,97.3,42.2z"/>
		</g>
		<g id="XMLID_1298_">
			<g id="XMLID_1299_">
				<path class="st1" d="M42.4,38.6c3.9-3.9,9.2-6.3,15.1-6.3s11.3,2.5,15.1,6.3c2.7,2.7,4.7,6.1,5.5,9.8h0.4h18.8
					c9.6,0,17.4,7,19,16c0.2-1,0.2-1.8,0.2-2.9c0-10.6-8.6-19.2-19.2-19.2H78.7h-0.4c-1-3.7-2.9-7.2-5.5-9.8
					c-3.9-3.9-9.2-6.3-15.1-6.3s-11.3,2.5-15.1,6.3s-6.3,9.2-6.3,15.1c0,1,0.2,2,0.2,3.1C37.1,45.9,39.1,41.8,42.4,38.6z"/>
			</g>
		</g>
		<g id="XMLID_1297_">
			<path class="st2" d="M84.4,114.7H41.8c-0.2,0-0.4-0.2-0.4-0.4V67.4c0-0.2,0.2-0.4,0.4-0.4h42.4c0.2,0,0.4,0.2,0.4,0.4v46.9
				C84.8,114.3,84.4,114.7,84.4,114.7z"/>
			
				<linearGradient id="SVGID_1_" gradientUnits="userSpaceOnUse" x1="40.4753" y1="-962.85" x2="85.7216" y2="-962.85" gradientTransform="matrix(1 0 0 -1 0 -872)">
				<stop  offset="0" style="stop-color:#A767FF"/>
				<stop  offset="1" style="stop-color:#F60A9E"/>
			</linearGradient>
			<path class="st3" d="M84.8,115.7h-43c-0.8,0-1.4-0.7-1.4-1.4V67.4c0-0.8,0.7-1.4,1.4-1.4h42.4c0.8,0,1.4,0.7,1.4,1.4V114
				c0.2,0.7-0.3,1.2-0.5,1.4L84.8,115.7z M42.4,113.7h41.1V68H42.4V113.7z"/>
		</g>
		<g id="XMLID_1296_">
			<path class="st1" d="M49.6,114.3V67.4c0-0.2,0.2-0.4,0.4-0.4h-8.2c-0.2,0-0.4,0.2-0.4,0.4v46.9c0,0.2,0.2,0.4,0.4,0.4H50
				L49.6,114.3z"/>
		</g>
		<g id="XMLID_1295_">
			<path class="st4" d="M76.6,114.3V67.4c0-0.2-0.2-0.4-0.4-0.4h8.2c0.2,0,0.4,0.2,0.4,0.4v46.9c0,0.2-0.2,0.4-0.4,0.4h-8.2
				C76.6,114.7,76.6,114.3,76.6,114.3z"/>
		</g>
		<g id="XMLID_1294_">
			<path class="st5" d="M111.6,81.3L97.7,67.4h-0.2h-0.2L83.4,81.3c-0.2,0.2,0,0.4,0.2,0.4h6.1v33h15.6V81.6L111.6,81.3
				C111.6,81.6,111.6,81.3,111.6,81.3z"/>
		</g>
		<g id="XMLID_1293_">
			
				<linearGradient id="SVGID_2_" gradientUnits="userSpaceOnUse" x1="22.4594" y1="-942.3" x2="118.6594" y2="-942.3" gradientTransform="matrix(1 0 0 -1 0 -872)">
				<stop  offset="0" style="stop-color:#A767FF"/>
				<stop  offset="1" style="stop-color:#F60A9E"/>
			</linearGradient>
			<path class="st6" d="M85.2,116.8H41.8c-1.3,0-2.5-1.1-2.5-2.5V67.4c0-1.3,1.1-2.5,2.5-2.5h42.4c1.3,0,2.5,1.1,2.5,2.5v46.4
				c0.1,0.6,0.1,1.4-0.8,2.3L85.2,116.8z M43.4,112.7h39.1V101H43.4V112.7z M43.4,96.9h39.1V84.6H43.4V96.9z M43.4,80.5h39.1V69.1
				H43.4V80.5z M107.3,114.7h-4.1V95.9h4.1V114.7z M97.1,114.7H93V83.6h4.1V114.7z M76,109.2h-4.5v-4.1H76V109.2z M65.1,109.2h-4.5
				v-4.1h4.5V109.2z M54.5,109.2H50v-4.1h4.5V109.2z M107.3,89.7h-4.1v-10h3.9l-9.6-9.6l-6.7,6.7L87.9,74l8.6-8.6h2.1l14.5,14.5
				c0.7,0.7,0.9,1.6,0.5,2.5s-1.2,1.4-2.2,1.4h-4.1V89.7z M37.1,78.5c-8.2,0-14.5-6.4-14.5-14.5c0-6.9,4.8-12.6,11.2-14.1
				c-0.1-0.9-0.1-1.8-0.1-2.6c0-6.2,2.5-12.1,6.9-16.6c4.5-4.5,10.4-6.9,16.6-6.9s12.1,2.5,16.6,6.9c2.7,2.7,4.6,5.8,5.7,9.2h18
				c11.7,0,21.3,9.6,21.3,21.3c0,4.2-1.3,8.2-3.6,11.8l-3.4-2.3c1.9-2.9,2.9-6.2,2.9-9.5c0-9.5-7.7-17.2-17.2-17.2h-17
				c0.2,1.1,0.2,2.2,0.2,3.3h-4.1c0-5.1-2-10-5.7-13.7s-8.6-5.7-13.7-5.7s-10,2-13.7,5.7s-5.7,8.6-5.7,13.7c0,3,0.7,6,2,8.7
				l-3.7,1.8c-0.6-1.2-1.1-2.5-1.5-3.9c-4.5,1.1-7.9,5.2-7.9,10.1c0,5.9,4.6,10.4,10.4,10.4V78.5z"/>
		</g>
	</g>
</g>
</svg>
