<?xml version="1.0" encoding="utf-8"?>
<!-- Generator: Adobe Illustrator 21.0.0, SVG Export Plug-In . SVG Version: 6.00 Build 0)  -->
<svg version="1.1" id="Camada_1" xmlns="http://www.w3.org/2000/svg" xmlns:xlink="http://www.w3.org/1999/xlink" x="0px" y="0px"
	 viewBox="0 0 64 64" style="enable-background:new 0 0 64 64;" xml:space="preserve">
<style type="text/css">
	.st0{fill:#FFFFFF;stroke:url(#XMLID_2_);stroke-miterlimit:10;}
	.st1{fill:#E8DDFF;}
	.st2{fill:#FFFFFF;stroke:url(#XMLID_3_);stroke-miterlimit:10;}
	.st3{fill:#DDE7FF;}
	.st4{fill:none;stroke:url(#XMLID_4_);stroke-width:2;stroke-miterlimit:10;}
</style>
<g id="icons_2_">
	<g id="XMLID_160_">
		
			<linearGradient id="XMLID_2_" gradientUnits="userSpaceOnUse" x1="15.2" y1="1046" x2="50.1" y2="1046" gradientTransform="matrix(1 0 0 1 0 -1014)">
			<stop  offset="0" style="stop-color:#A767FF"/>
			<stop  offset="1" style="stop-color:#F60A9E"/>
		</linearGradient>
		<path id="XMLID_519_" class="st0" d="M49,54H16.3c-0.3,0-0.6-0.3-0.6-0.6V10.6c0-0.3,0.3-0.6,0.6-0.6H49c0.3,0,0.6,0.3,0.6,0.6
			v42.8C49.6,53.7,49.3,54,49,54z"/>
		<path id="XMLID_152_" class="st1" d="M43.7,47.7H40V14.3h3.7c0.8,0,1.5,0.7,1.5,1.5v30.5C45.1,47,44.5,47.7,43.7,47.7z"/>
		
			<linearGradient id="XMLID_3_" gradientUnits="userSpaceOnUse" x1="36.3" y1="1043.3" x2="40.9" y2="1043.3" gradientTransform="matrix(1 0 0 1 0 -1014)">
			<stop  offset="0" style="stop-color:#A767FF"/>
			<stop  offset="1" style="stop-color:#F60A9E"/>
		</linearGradient>
		<path id="XMLID_151_" class="st2" d="M38.6,13.2h-1.8v30.7h1.8c0.9,0,1.8,0.7,1.8,2V15.1C40.4,14,39.6,13.2,38.6,13.2z"/>
		<path id="XMLID_150_" class="st3" d="M38.6,13.2h-1.8l0,0c0.9,0.1,1.6,0.9,1.6,1.8v28.9h0.2c0.9,0,1.8,0.7,1.8,2V15.1
			C40.4,14,39.6,13.2,38.6,13.2z"/>
		
			<linearGradient id="XMLID_4_" gradientUnits="userSpaceOnUse" x1="14.6" y1="1046" x2="50.5" y2="1046" gradientTransform="matrix(1 0 0 1 0 -1014)">
			<stop  offset="0" style="stop-color:#A767FF"/>
			<stop  offset="1" style="stop-color:#F60A9E"/>
		</linearGradient>
		<path id="XMLID_148_" class="st4" d="M48.9,54H16.2c-0.3,0-0.6-0.3-0.6-0.6V10.6c0-0.3,0.3-0.6,0.6-0.6h32.7
			c0.3,0,0.6,0.3,0.6,0.6v42.8C49.5,53.7,49.2,54,48.9,54z M42.5,47.7h2.7c0.1,0,0.2-0.1,0.2-0.2V15.6c0-0.1-0.1-0.2-0.2-0.2h-2.6
			 M34.5,15.3H20c-0.1,0-0.2,0.1-0.2,0.2v31.9c0,0.1,0.1,0.2,0.2,0.2h18.4c1.1,0,2.1-0.8,2.1-1.9 M40.4,15.1c0-1-0.8-1.8-1.8-1.8
			h-1.8V44h1.8c0.9,0,1.8,0.7,1.8,2V15.1z M28.8,12.5h5.7 M26,12.5h1.8 M23.7,21h10.2 M23.7,26h10.2 M23.7,31h10.2 M23.7,36h10.2
			 M23.7,41h10.2"/>
	</g>
</g>
</svg>
