<?xml version="1.0" encoding="utf-8"?>
<!-- Generator: Adobe Illustrator 21.0.0, SVG Export Plug-In . SVG Version: 6.00 Build 0)  -->
<svg version="1.1" id="Camada_1" xmlns="http://www.w3.org/2000/svg" xmlns:xlink="http://www.w3.org/1999/xlink" x="0px" y="0px"
	 viewBox="0 0 26 26" style="enable-background:new 0 0 26 26;" xml:space="preserve">
<style type="text/css">
	.st0{fill:#FFFFFF;}
</style>
<path class="st0" d="M23.2,26H2.8C1.2,26,0,24.8,0,23.2V2.8C0,1.2,1.2,0,2.8,0h20.4C24.8,0,26,1.2,26,2.8v20.4
	C26,24.8,24.8,26,23.2,26z M11.3,20.3L22,9.6c0.4-0.4,0.4-1,0-1.3L20.7,7c-0.4-0.4-1-0.4-1.3,0l-8.7,8.7l-4.1-4.1
	c-0.4-0.4-1-0.4-1.3,0L4,13c-0.4,0.4-0.4,1,0,1.3l6,6C10.4,20.7,11,20.7,11.3,20.3L11.3,20.3z"/>
</svg>
