<?xml version="1.0" encoding="utf-8"?>
<!-- Generator: Adobe Illustrator 21.0.0, SVG Export Plug-In . SVG Version: 6.00 Build 0)  -->
<svg version="1.1" id="Camada_1" xmlns="http://www.w3.org/2000/svg" xmlns:xlink="http://www.w3.org/1999/xlink" x="0px" y="0px"
	 viewBox="0 0 27 27" style="enable-background:new 0 0 27 27;" xml:space="preserve">
<style type="text/css">
	.st0{fill:#1F1A21;}
</style>
<g>
	<path class="st0" d="M12.9,0c0.4,0,0.8,0,1.3,0c0.3,0,0.6,0,0.9,0.1c1.5,0.1,2.9,0.5,4.2,1.2c2.5,1.2,4.4,3,5.9,5.3
		c1,1.7,1.6,3.5,1.8,5.4c0,0.3,0.1,0.6,0.1,0.9c0,0.4,0,0.8,0,1.3c0,0.3,0,0.6-0.1,0.9c-0.1,1.4-0.5,2.7-1.1,4
		c-1.2,2.6-3.1,4.6-5.5,6.1c-1.6,1-3.4,1.6-5.3,1.8c-0.3,0-0.6,0.1-0.9,0.1c-0.4,0-0.8,0-1.3,0c0,0-0.1,0-0.1,0
		c-0.5,0-0.9-0.1-1.4-0.1c-1.5-0.2-2.9-0.7-4.2-1.4c-1.9-1-3.4-2.5-4.7-4.2C1,19.3,0.2,17.1,0,14.7c0-0.2,0-0.4,0-0.5
		c0-0.4,0-0.9,0-1.3c0,0,0-0.1,0-0.1c0-0.3,0-0.7,0.1-1c0.2-1.4,0.5-2.8,1.2-4c1.2-2.5,3-4.4,5.3-5.8c1.6-1,3.5-1.6,5.4-1.8
		C12.3,0,12.6,0,12.9,0z M12,21.2c3.5-3.5,7.1-7.1,10.6-10.6c-1-1-1.9-1.9-2.9-2.9c-2.6,2.6-5.1,5.1-7.7,7.7
		c-1.4-1.4-2.9-2.9-4.3-4.3c-1,1-1.9,1.9-2.9,2.9C7.2,16.4,9.7,18.8,12,21.2z"/>
</g>
</svg>
