<?xml version="1.0" encoding="utf-8"?>
<!-- Generator: Adobe Illustrator 21.0.0, SVG Export Plug-In . SVG Version: 6.00 Build 0)  -->
<svg version="1.1" id="Camada_1" xmlns="http://www.w3.org/2000/svg" xmlns:xlink="http://www.w3.org/1999/xlink" x="0px" y="0px"
	 viewBox="0 0 79 76.1" style="enable-background:new 0 0 79 76.1;" xml:space="preserve">
<style type="text/css">
	.st0{fill:url(#SVGID_1_);}
</style>
<linearGradient id="SVGID_1_" gradientUnits="userSpaceOnUse" x1="9.1164" y1="40.05" x2="73.8836" y2="40.05">
	<stop  offset="0" style="stop-color:#A767FF"/>
	<stop  offset="1" style="stop-color:#F60A9E"/>
</linearGradient>
<path class="st0" d="M37.3,65.9l-6.2-1.8c-0.6-0.2-1-0.9-0.8-1.5L44.2,15c0.2-0.6,0.9-1,1.5-0.8l6.2,1.8c0.6,0.2,1,0.9,0.8,1.5
	L38.8,65.1C38.7,65.7,38,66.1,37.3,65.9z M25.8,54.5l4.4-4.7c0.5-0.5,0.4-1.3-0.1-1.7L21,40l9.2-8.1c0.5-0.5,0.6-1.2,0.1-1.7
	l-4.4-4.7c-0.5-0.5-1.2-0.5-1.7-0.1L9.5,39.2c-0.5,0.5-0.5,1.3,0,1.8l14.6,13.7C24.6,55.1,25.3,55,25.8,54.5L25.8,54.5z M58.9,54.6
	l14.6-13.7c0.5-0.5,0.5-1.3,0-1.8L58.9,25.5c-0.5-0.5-1.3-0.4-1.7,0.1l-4.4,4.7c-0.5,0.5-0.4,1.3,0.1,1.7L62,40l-9.2,8.1
	c-0.5,0.5-0.6,1.2-0.1,1.7l4.4,4.7C57.7,55,58.4,55.1,58.9,54.6L58.9,54.6z"/>
</svg>
