<?xml version="1.0" encoding="utf-8"?>
<!-- Generator: Adobe Illustrator 21.0.0, SVG Export Plug-In . SVG Version: 6.00 Build 0)  -->
<svg version="1.1" id="Camada_1" xmlns="http://www.w3.org/2000/svg" xmlns:xlink="http://www.w3.org/1999/xlink" x="0px" y="0px"
	 viewBox="0 0 64 64" style="enable-background:new 0 0 64 64;" xml:space="preserve">
<style type="text/css">
	.st0{fill:#CDDCFF;}
	.st1{fill:#FFFFFF;stroke:url(#XMLID_2_);stroke-miterlimit:10;}
	.st2{fill:#E8DDFF;}
	.st3{fill:none;stroke:url(#XMLID_3_);stroke-width:2;stroke-miterlimit:10;}
</style>
<g id="icons_3_">
	<g id="XMLID_342_">
		<path id="XMLID_345_" class="st0" d="M54.1,41.7H14.2c-0.1,0-0.2-0.1-0.2-0.2V11.9c0-0.1,0.1-0.2,0.2-0.2h39.9
			c0.1,0,0.2,0.1,0.2,0.2v29.6C54.2,41.6,54.1,41.7,54.1,41.7z"/>
		
			<linearGradient id="XMLID_2_" gradientUnits="userSpaceOnUse" x1="9.2" y1="1050.2207" x2="50.6414" y2="1050.2207" gradientTransform="matrix(1 0 0 1 0 -1014)">
			<stop  offset="0" style="stop-color:#A767FF"/>
			<stop  offset="1" style="stop-color:#F60A9E"/>
		</linearGradient>
		<path id="XMLID_388_" class="st1" d="M50,47.9H17.8l-7.9,6.7c-0.1,0.1-0.2,0-0.2-0.1V18c0-0.1,0.1-0.2,0.2-0.2h40
			c0.1,0,0.2,0.1,0.2,0.2v29.7C50.2,47.8,50.1,47.9,50,47.9z"/>
		<path id="XMLID_344_" class="st2" d="M50,17.7H10c-0.1,0-0.2,0.1-0.2,0.2v3.8H46c0.1,0,0.2,0.1,0.2,0.2v25.9H50
			c0.1,0,0.2-0.1,0.2-0.2V18C50.2,17.8,50.1,17.7,50,17.7z"/>
		
			<linearGradient id="XMLID_3_" gradientUnits="userSpaceOnUse" x1="8.7" y1="1047.2207" x2="55.2" y2="1047.2207" gradientTransform="matrix(1 0 0 1 0 -1014)">
			<stop  offset="0" style="stop-color:#A767FF"/>
			<stop  offset="1" style="stop-color:#F60A9E"/>
		</linearGradient>
		<path id="XMLID_343_" class="st3" d="M50,47.9H17.8l-7.9,6.7c-0.1,0.1-0.2,0-0.2-0.1V18c0-0.1,0.1-0.2,0.2-0.2h40
			c0.1,0,0.2,0.1,0.2,0.2v29.7C50.2,47.8,50.1,47.9,50,47.9z M52.1,41.9H54c0.1,0,0.2-0.1,0.2-0.2V12c0-0.1-0.1-0.2-0.2-0.2H14
			c-0.1,0-0.2,0.1-0.2,0.2v3.6 M38.2,42.9L38.2,42.9c0-0.4-0.3-0.7-0.7-0.7h-1.9c-0.4,0-0.7,0.3-0.7,0.7l0,0c0,0.4,0.3,0.7,0.7,0.7
			h1.9C37.9,43.6,38.2,43.3,38.2,42.9z M30.8,30.9h-0.6c-1.3,0-2.3,1-2.3,2.3l0,0c0,1.3,1,2.3,2.3,2.3h0.6V30.9z M44.9,35.6h0.6
			c1.3,0,2.3-1,2.3-2.3l0,0c0-1.3-1-2.3-2.3-2.3h-0.6V35.6z M44.9,29.7c-0.7-3.2-3.6-5.6-7-5.6l0,0c-3.6,0-6.7,2.8-7.1,6.3
			 M37.9,42.9c3.9,0,7.1-3.2,7.1-7.1v-6.5 M13.4,23.8h17.4 M27.9,28.3H13.4 M13.4,32.8h11.7 M13.4,37.4H27 M13.4,41.9h17.7"/>
	</g>
</g>
</svg>
