<?xml version="1.0" encoding="utf-8"?>
<!-- Generator: Adobe Illustrator 21.0.0, SVG Export Plug-In . SVG Version: 6.00 Build 0)  -->
<svg version="1.1" id="Camada_1" xmlns="http://www.w3.org/2000/svg" xmlns:xlink="http://www.w3.org/1999/xlink" x="0px" y="0px"
	 viewBox="0 0 64 64" style="enable-background:new 0 0 64 64;" xml:space="preserve">
<style type="text/css">
	.st0{fill:#FFFFFF;stroke:url(#XMLID_2_);stroke-miterlimit:10;}
	.st1{fill:#CDDCFF;}
	.st2{fill:none;stroke:url(#XMLID_3_);stroke-width:2;stroke-miterlimit:10;}
</style>
<g id="icons">
	<g id="XMLID_215_">
		
			<linearGradient id="XMLID_2_" gradientUnits="userSpaceOnUse" x1="11.5" y1="1045.95" x2="52.6" y2="1045.95" gradientTransform="matrix(1 0 0 1 0 -1014)">
			<stop  offset="0" style="stop-color:#A767FF"/>
			<stop  offset="1" style="stop-color:#F60A9E"/>
		</linearGradient>
		<path id="XMLID_433_" class="st0" d="M52.1,34.4v-5.1l-4.3-1.2c-0.4-1.7-1.1-3.3-2-4.8l2.5-4.2l-3.6-3.6L40.5,18
			c-1.5-0.9-3.1-1.6-4.8-2l-1.2-4.6h-5.1L28.2,16c-1.7,0.4-3.3,1.1-4.8,2l-4.1-2.4l-3.6,3.6l2.4,4.1c-0.9,1.5-1.6,3.1-2,4.8L12,29.5
			v5.1l4.3,1c0.4,1.7,1.1,3.3,2,4.8l-2.6,3.9l3.6,3.6l4.2-2.3c1.5,0.9,3.1,1.6,4.8,2l1.2,4.9h5.1l1.2-4.9c1.7-0.4,3.3-1.1,4.8-2
			l4.2,2.5l3.6-3.6l-2.6-4.1c0.9-1.5,1.6-3.1,2-4.8L52.1,34.4z"/>
		<circle id="XMLID_198_" class="st1" cx="31.5" cy="31.8" r="7.2"/>
		
			<linearGradient id="XMLID_3_" gradientUnits="userSpaceOnUse" x1="10.7" y1="1045.9" x2="53" y2="1045.9" gradientTransform="matrix(1 0 0 1 0 -1014)">
			<stop  offset="0" style="stop-color:#A767FF"/>
			<stop  offset="1" style="stop-color:#F60A9E"/>
		</linearGradient>
		<path id="XMLID_273_" class="st2" d="M41.5,24.2l-9.7,9.7L26.9,29 M35,25.5c-1-0.6-2.2-0.9-3.5-0.9c-4,0-7.2,3.2-7.2,7.2
			s3.2,7.2,7.2,7.2s7.2-3.2,7.2-7.2 M52,34.4v-5.1l-4.3-1.2c-0.4-1.7-1.1-3.3-2-4.8l2.5-4.2l-3.6-3.6L40.4,18
			c-1.5-0.9-3.1-1.6-4.8-2l-1.2-4.6h-5.1L28.1,16c-1.7,0.4-3.3,1.1-4.8,2l-4.1-2.4l-3.6,3.6l2.4,4.1c-0.9,1.5-1.6,3.1-2,4.8
			l-4.3,1.3v5.1l4.3,1c0.4,1.7,1.1,3.3,2,4.8l-2.6,3.9l3.6,3.6l4.2-2.3c1.5,0.9,3.1,1.6,4.8,2l1.2,4.9h5.1l1.2-4.9
			c1.7-0.4,3.3-1.1,4.8-2l4.2,2.5l3.6-3.6l-2.6-4.1c0.9-1.5,1.6-3.1,2-4.8L52,34.4z M32.9,17.2h-2.2 M41.5,20.8l1.5,1.5 M46.6,33.1
			v-2.2 M41.5,43.2l1.5-1.5 M30.7,46.7h2.2 M22.2,43.2l-1.5-1.5 M17.1,33v-2.2 M22.2,20.8l-1.5,1.5"/>
	</g>
</g>
</svg>
