<?xml version="1.0" encoding="utf-8"?>
<!-- Generator: Adobe Illustrator 21.0.0, SVG Export Plug-In . SVG Version: 6.00 Build 0)  -->
<svg version="1.1" id="Camada_1" xmlns="http://www.w3.org/2000/svg" xmlns:xlink="http://www.w3.org/1999/xlink" x="0px" y="0px"
	 viewBox="0 0 64 64" style="enable-background:new 0 0 64 64;" xml:space="preserve">
<style type="text/css">
	.st0{fill:#FFFFFF;stroke:url(#XMLID_2_);stroke-miterlimit:10;}
	.st1{fill:#CDDCFF;}
	.st2{fill:#FFFFFF;}
	.st3{fill:none;stroke:url(#XMLID_3_);stroke-width:2;stroke-miterlimit:10;}
</style>
<g id="icons_1_">
	<g id="XMLID_94_">
		<linearGradient id="XMLID_2_" gradientUnits="userSpaceOnUse" x1="19.9" y1="32.9" x2="24" y2="32.9">
			<stop  offset="0" style="stop-color:#A767FF"/>
			<stop  offset="1" style="stop-color:#F60A9E"/>
		</linearGradient>
		<path id="XMLID_565_" class="st0" d="M23.5,23.8L23.5,23.8c-1.7,0-3.1,1.4-3.1,3.1v12c0,1.7,1.4,3.1,3.1,3.1l0,0V23.8z"/>
		<path id="XMLID_51_" class="st1" d="M23.6,39v3.1h12c1.7,0,3.1-1.4,3.1-3.1H23.6z"/>
		<path id="XMLID_568_" class="st2" d="M26.9,11.6v22.7c0,0,0,0.1,0.1,0.1h21.8c0,0,0.1,0,0.1-0.1V11.6l-1.7,1.7l-3.3-1.7l-4.2,1.7
			l-3.3-1.7l-4.1,1.7L26.9,11.6z"/>
		<linearGradient id="XMLID_3_" gradientUnits="userSpaceOnUse" x1="8.325" y1="32" x2="55.207" y2="32">
			<stop  offset="0" style="stop-color:#A767FF"/>
			<stop  offset="1" style="stop-color:#F60A9E"/>
		</linearGradient>
		<path id="XMLID_50_" class="st3" d="M22.6,46.3v-4.4 M15.9,39.6l4.7,0.2 M23.5,23.8L23.5,23.8c-1.7,0-3.1,1.4-3.1,3.1v12
			c0,1.7,1.4,3.1,3.1,3.1l0,0V23.8z M10.3,38.7C9,40,9,42.1,10.3,43.4c1.3,1.3,3.4,1.3,4.7,0s1.3-3.4,0-4.7S11.6,37.4,10.3,38.7z
			 M18.6,47c-1.3,1.3-1.3,3.4,0,4.7s3.4,1.3,4.7,0s1.3-3.4,0-4.7C22.1,45.7,19.9,45.7,18.6,47z M23.5,42.1h12c1.7,0,3.1-1.4,3.1-3.1
			l0,0H23.5 M26.7,15.6v18.7c0,0,0,0.1,0.1,0.1h21.8c0,0,0.1,0,0.1-0.1V15.6 M54.7,13.4l-3.4-2c-0.2-0.1-0.4-0.1-0.6,0l-3.1,1.8
			c-0.2,0.1-0.4,0.1-0.6,0l-3.1-1.8c-0.2-0.1-0.4-0.1-0.6,0L40,13.2c-0.2,0.1-0.4,0.1-0.6,0l-3.1-1.8c-0.2-0.1-0.4-0.1-0.6,0
			l-3.1,1.8c-0.2,0.1-0.4,0.1-0.6,0l-3.1-1.8c-0.2-0.1-0.4-0.1-0.6,0L25,13.2c-0.2,0.1-0.4,0.1-0.6,0l-3.4-2 M40.2,27.6
			c-0.6,0.6-0.6,1.6,0,2.3c0.6,0.6,1.6,0.6,2.3,0c0.6-0.6,0.6-1.6,0-2.3C41.8,26.9,40.8,26.9,40.2,27.6z M32.8,20.2
			c-0.6,0.6-0.6,1.6,0,2.3c0.6,0.6,1.6,0.6,2.3,0c0.6-0.6,0.6-1.6,0-2.3C34.5,19.6,33.5,19.6,32.8,20.2z M42.4,20.3l-8.6,8.6"/>
	</g>
</g>
</svg>
