<?xml version="1.0" encoding="utf-8"?>
<!-- Generator: Adobe Illustrator 21.0.0, SVG Export Plug-In . SVG Version: 6.00 Build 0)  -->
<svg version="1.1" id="Camada_1" xmlns="http://www.w3.org/2000/svg" xmlns:xlink="http://www.w3.org/1999/xlink" x="0px" y="0px"
	 viewBox="0 0 45 40" style="enable-background:new 0 0 45 40;" xml:space="preserve">
<style type="text/css">
	.st0{fill:url(#SVGID_1_);}
	.st1{fill:url(#SVGID_2_);}
	.st2{fill:url(#SVGID_3_);}
</style>
<linearGradient id="SVGID_1_" gradientUnits="userSpaceOnUse" x1="0" y1="22.0729" x2="44.975" y2="22.0729" gradientTransform="matrix(1 0 0 -1 0 42)">
	<stop  offset="0.4707" style="stop-color:#A767FF"/>
	<stop  offset="0.6968" style="stop-color:#A767FF"/>
	<stop  offset="1" style="stop-color:#F60A9E"/>
</linearGradient>
<path class="st0" d="M31.4,26.9l2.5-2.5c0.4-0.4,1.1-0.1,1.1,0.4v11.4c0,2.1-1.7,3.7-3.7,3.7H3.7C1.7,40,0,38.3,0,36.2V8.8
	C0,6.7,1.7,5,3.7,5h21.4c0.6,0,0.8,0.7,0.4,1.1L23,8.6c-0.1,0.1-0.3,0.2-0.4,0.2H3.7v27.5h27.5v-8.9C31.2,27.2,31.3,27.1,31.4,26.9z
	 M43.7,11.2L23.1,31.7L16,32.5c-2,0.2-3.8-1.5-3.6-3.6l0.8-7.1L33.8,1.3c1.8-1.8,4.7-1.8,6.5,0l3.4,3.4C45.4,6.5,45.4,9.4,43.7,11.2
	L43.7,11.2z M35.9,13.6l-4.5-4.5L16.9,23.6l-0.6,5.1l5.1-0.6L35.9,13.6z M41,7.4L37.6,4c-0.3-0.3-0.8-0.3-1.2,0L34,6.4l4.5,4.5
	L41,8.5C41.3,8.2,41.3,7.7,41,7.4z"/>
<linearGradient id="SVGID_2_" gradientUnits="userSpaceOnUse" x1="0" y1="21.0729" x2="44.975" y2="21.0729" gradientTransform="matrix(1 0 0 -1 0 42)">
	<stop  offset="0.6968" style="stop-color:#A767FF"/>
	<stop  offset="1" style="stop-color:#F60A9E"/>
</linearGradient>
<path class="st1" d="M31.4,27.9l2.5-2.5c0.4-0.4,1.1-0.1,1.1,0.4v11.4c0,2.1-1.7,3.7-3.7,3.7H3.7C1.7,41,0,39.3,0,37.2V9.8
	C0,7.7,1.7,6,3.7,6h21.4c0.6,0,0.8,0.7,0.4,1.1L23,9.6c-0.1,0.1-0.3,0.2-0.4,0.2H3.7v27.5h27.5v-8.9C31.2,28.2,31.3,28.1,31.4,27.9z
	 M43.7,12.2L23.1,32.7L16,33.5c-2,0.2-3.8-1.5-3.6-3.6l0.8-7.1L33.8,2.3c1.8-1.8,4.7-1.8,6.5,0l3.4,3.4
	C45.4,7.5,45.4,10.4,43.7,12.2L43.7,12.2z M35.9,14.6l-4.5-4.5L16.9,24.6l-0.6,5.1l5.1-0.6L35.9,14.6z M41,8.4L37.6,5
	c-0.3-0.3-0.8-0.3-1.2,0L34,7.4l4.5,4.5L41,9.5C41.3,9.2,41.3,8.7,41,8.4z"/>
<linearGradient id="SVGID_3_" gradientUnits="userSpaceOnUse" x1="0" y1="21.0729" x2="44.975" y2="21.0729" gradientTransform="matrix(1 0 0 -1 0 42)">
	<stop  offset="0" style="stop-color:#F60A9E"/>
	<stop  offset="1" style="stop-color:#F60A9E"/>
</linearGradient>
<path class="st2" d="M31.4,27.9l2.5-2.5c0.4-0.4,1.1-0.1,1.1,0.4v11.4c0,2.1-1.7,3.7-3.7,3.7H3.7C1.7,41,0,39.3,0,37.2V9.8
	C0,7.7,1.7,6,3.7,6h21.4c0.6,0,0.8,0.7,0.4,1.1L23,9.6c-0.1,0.1-0.3,0.2-0.4,0.2H3.7v27.5h27.5v-8.9C31.2,28.2,31.3,28.1,31.4,27.9z
	 M43.7,12.2L23.1,32.7L16,33.5c-2,0.2-3.8-1.5-3.6-3.6l0.8-7.1L33.8,2.3c1.8-1.8,4.7-1.8,6.5,0l3.4,3.4
	C45.4,7.5,45.4,10.4,43.7,12.2L43.7,12.2z M35.9,14.6l-4.5-4.5L16.9,24.6l-0.6,5.1l5.1-0.6L35.9,14.6z M41,8.4L37.6,5
	c-0.3-0.3-0.8-0.3-1.2,0L34,7.4l4.5,4.5L41,9.5C41.3,9.2,41.3,8.7,41,8.4z"/>
</svg>
