<?xml version="1.0" encoding="utf-8"?>
<!-- Generator: Adobe Illustrator 21.0.0, SVG Export Plug-In . SVG Version: 6.00 Build 0)  -->
<svg version="1.1" id="Camada_1" xmlns="http://www.w3.org/2000/svg" xmlns:xlink="http://www.w3.org/1999/xlink" x="0px" y="0px"
	 viewBox="0 0 27 27" style="enable-background:new 0 0 27 27;" xml:space="preserve">
<style type="text/css">
	.st0{fill:#1F1A21;}
</style>
<g>
	<path class="st0" d="M14.1,27c-0.4,0-0.8,0-1.2,0c-0.3,0-0.6,0-0.8-0.1c-1.6-0.2-3.1-0.6-4.6-1.3c-2.6-1.3-4.6-3.2-5.9-5.8
		c-0.8-1.5-1.3-3.2-1.5-4.9c0-0.3-0.1-0.6-0.1-0.8c0-0.4,0-0.8,0-1.2c0,0,0-0.1,0-0.1c0-0.7,0.1-1.5,0.3-2.2c0.7-3.2,2.4-5.8,5-7.8
		c2-1.5,4.3-2.4,6.7-2.7c1.3-0.1,2.7-0.1,4,0.2c3.1,0.6,5.7,2.1,7.7,4.6c2.8,3.4,3.8,7.3,2.8,11.6c-0.8,3.8-3,6.7-6.3,8.7
		c-1.7,1-3.5,1.6-5.5,1.8C14.7,26.9,14.4,27,14.1,27z M13.4,16.3c0,0.1,0.1,0.1,0.1,0.1c1.1,1.1,2.2,2.3,3.4,3.4
		c0.3,0.3,0.6,0.5,0.9,0.7c0.5,0.3,0.9,0.3,1.4,0c0.4-0.3,0.7-0.6,1-1c0.3-0.5,0.3-1,0-1.5c-0.2-0.3-0.4-0.6-0.7-0.8
		c-1.1-1.1-2.2-2.2-3.3-3.3c0,0-0.1-0.1-0.1-0.1c0.1,0,0.1-0.1,0.1-0.1c1-1,2.1-2.1,3.1-3.1c0.3-0.3,0.6-0.7,0.8-1
		c0.3-0.5,0.3-1,0-1.5c-0.2-0.4-0.5-0.7-0.9-0.9c-0.5-0.4-1-0.4-1.6,0c-0.3,0.2-0.6,0.4-0.8,0.7c-1.1,1.1-2.2,2.2-3.3,3.3
		c0,0-0.1,0.1-0.1,0.1c0,0-0.1-0.1-0.1-0.1C12.1,9.8,11,8.7,9.9,7.6C9.7,7.3,9.4,7.1,9.1,6.9c-0.5-0.3-1-0.3-1.5,0
		C7.2,7.2,6.9,7.5,6.6,7.9c-0.3,0.5-0.3,1,0,1.5C6.8,9.7,7,10,7.3,10.2c1.1,1.1,2.2,2.2,3.3,3.3c0,0,0.1,0.1,0.1,0.1
		c0,0-0.1,0.1-0.1,0.1c-1.1,1.1-2.2,2.2-3.3,3.3C7,17.4,6.7,17.7,6.6,18c-0.2,0.5-0.2,0.9,0,1.4c0.2,0.4,0.5,0.7,0.9,1
		c0.6,0.4,1.1,0.4,1.7,0c0.3-0.2,0.6-0.5,0.9-0.7c1.1-1.1,2.2-2.1,3.2-3.2C13.3,16.4,13.3,16.3,13.4,16.3z"/>
</g>
</svg>
