<?xml version="1.0" encoding="utf-8"?>
<!-- Generator: Adobe Illustrator 21.0.0, SVG Export Plug-In . SVG Version: 6.00 Build 0)  -->
<svg version="1.1" id="Camada_1" xmlns="http://www.w3.org/2000/svg" xmlns:xlink="http://www.w3.org/1999/xlink" x="0px" y="0px"
	 viewBox="0 0 37 37" style="enable-background:new 0 0 37 37;" xml:space="preserve">
<style type="text/css">
	.st0{fill:#F96B64;}
</style>
<path class="st0" d="M37,18.5C37,28.7,28.7,37,18.5,37S0,28.7,0,18.5C0,8.3,8.3,0,18.5,0S37,8.3,37,18.5z M18.5,22.2
	c-1.9,0-3.4,1.5-3.4,3.4c0,1.9,1.5,3.4,3.4,3.4c1.9,0,3.4-1.5,3.4-3.4C21.9,23.8,20.4,22.2,18.5,22.2z M15.2,9.9L15.8,20
	c0,0.5,0.4,0.8,0.9,0.8h3.6c0.5,0,0.9-0.4,0.9-0.8l0.6-10.1c0-0.5-0.4-0.9-0.9-0.9h-4.7C15.6,9,15.2,9.4,15.2,9.9L15.2,9.9z"/>
</svg>
