<?xml version="1.0" encoding="utf-8"?>
<!-- Generator: Adobe Illustrator 21.0.0, SVG Export Plug-In . SVG Version: 6.00 Build 0)  -->
<svg version="1.1" id="Camada_1" xmlns="http://www.w3.org/2000/svg" xmlns:xlink="http://www.w3.org/1999/xlink" x="0px" y="0px"
	 viewBox="0 0 141.3 141" style="enable-background:new 0 0 141.3 141;" xml:space="preserve">
<style type="text/css">
	.st0{fill:url(#SVGID_1_);}
	.st1{fill:url(#SVGID_2_);}
	.st2{fill:url(#SVGID_3_);}
	.st3{fill:url(#SVGID_4_);}
	.st4{fill:url(#SVGID_5_);}
</style>
<g id="icons_2_">
	<g id="XMLID_1323_">
		<g id="XMLID_1330_">
			<g id="XMLID_1331_">
				
					<linearGradient id="SVGID_1_" gradientUnits="userSpaceOnUse" x1="65.8214" y1="2032.3" x2="114.3856" y2="2032.3" gradientTransform="matrix(1 0 0 1 0 -1952)">
					<stop  offset="0" style="stop-color:#A767FF"/>
					<stop  offset="1" style="stop-color:#F60A9E"/>
				</linearGradient>
				<path class="st0" d="M90,115.7c-1,0-1.9-0.1-2.9-0.2c-10.9-1.3-19.6-9.9-21.1-20.9c-1.6-11.4,4.7-22,15.5-26.1v-8.8H78
					c-0.8,0-1.4-0.7-1.4-1.4v-12c0-0.8,0.7-1.4,1.4-1.4h24c0.8,0,1.4,0.7,1.4,1.4v12c0,0.8-0.7,1.4-1.4,1.4h-3.5v8.8
					c9.3,3.3,15.7,12.3,15.9,22.8c0,7-3,13.6-8.2,18.2C101.7,113.5,95.9,115.7,90,115.7z M78.6,57.7h5V70l-0.7,0.2
					C72.6,73.8,66.5,83.7,68,94.3c1.4,10.1,9.3,18,19.3,19.2c6.4,0.8,12.6-1.2,17.4-5.4c4.7-4.2,7.5-10.3,7.5-16.7
					C112,81.5,105.9,73,97,70.2L96.3,70V57.7h5V47H78.6V57.7z"/>
			</g>
		</g>
		<g id="XMLID_1328_">
			<g id="XMLID_1329_">
				
					<linearGradient id="SVGID_2_" gradientUnits="userSpaceOnUse" x1="65.8214" y1="2032.3" x2="114.3856" y2="2032.3" gradientTransform="matrix(1 0 0 1 0 -1952)">
					<stop  offset="0" style="stop-color:#A767FF"/>
					<stop  offset="1" style="stop-color:#F60A9E"/>
				</linearGradient>
				<path class="st1" d="M90,115.7c-1,0-1.9-0.1-2.9-0.2c-10.9-1.3-19.6-9.9-21.1-20.9c-1.6-11.4,4.7-22,15.5-26.1v-8.8H78
					c-0.8,0-1.4-0.7-1.4-1.4v-12c0-0.8,0.7-1.4,1.4-1.4h24c0.8,0,1.4,0.7,1.4,1.4v12c0,0.8-0.7,1.4-1.4,1.4h-3.5v8.8
					c9.3,3.3,15.7,12.3,15.9,22.8c0,7-3,13.6-8.2,18.2C101.7,113.5,95.9,115.7,90,115.7z M78.6,57.7h5V70l-0.7,0.2
					C72.6,73.8,66.5,83.7,68,94.3c1.4,10.1,9.3,18,19.3,19.2c6.4,0.8,12.6-1.2,17.4-5.4c4.7-4.2,7.5-10.3,7.5-16.7
					C112,81.5,105.9,73,97,70.2L96.3,70V57.7h5V47H78.6V57.7z"/>
			</g>
		</g>
		<g id="XMLID_1327_">
			
				<linearGradient id="SVGID_3_" gradientUnits="userSpaceOnUse" x1="31.1625" y1="2032.2" x2="47.2625" y2="2032.2" gradientTransform="matrix(1 0 0 1 0 -1952)">
				<stop  offset="0" style="stop-color:#A767FF"/>
				<stop  offset="1" style="stop-color:#F60A9E"/>
			</linearGradient>
			<path class="st2" d="M39.3,115.3c-4.5,0-8.1-3.5-8.1-8.1V45.1h16.1v62.2C47.1,111.8,43.6,115.3,39.3,115.3z M33.3,47.2v60.1
				c0,3.4,2.6,6,6,6c3.2,0,5.8-2.7,6-6v-60h-12V47.2z"/>
		</g>
		<g id="XMLID_1325_">
			
				<linearGradient id="SVGID_4_" gradientUnits="userSpaceOnUse" x1="78.2479" y1="2042.3" x2="101.7886" y2="2042.3" gradientTransform="matrix(1 0 0 1 0 -1952)">
				<stop  offset="0" style="stop-color:#A767FF"/>
				<stop  offset="1" style="stop-color:#F60A9E"/>
			</linearGradient>
			<path class="st3" d="M90.1,102.1c-6.5,0-11.8-5.3-11.8-11.8s5.3-11.8,11.8-11.8s11.8,5.3,11.8,11.8S96.6,102.1,90.1,102.1z
				 M90.1,80.6c-5.4,0-9.7,4.4-9.7,9.7c0,5.4,4.4,9.7,9.7,9.7c5.4,0,9.7-4.4,9.7-9.7C99.8,85,95.5,80.6,90.1,80.6z"/>
		</g>
		<g id="XMLID_1324_">
			
				<linearGradient id="SVGID_5_" gradientUnits="userSpaceOnUse" x1="30.2" y1="2021.9" x2="115.2" y2="2021.9" gradientTransform="matrix(1 0 0 1 0 -1952)">
				<stop  offset="0" style="stop-color:#83E4BF"/>
				<stop  offset="1" style="stop-color:#7AD3D3"/>
			</linearGradient>
			<path class="st4" d="M39.3,116.3c-5.1,0-9.1-4-9.1-9.1V44.1h18.2v63.2C48.4,112.2,44.2,116.3,39.3,116.3z M34.4,103.1v4.1
				c0,2.8,2.2,5,5,5c2.7,0,5-2.3,5-5v-59h-9.9v5h5v4.1h-5v5h4.8v4.1h-4.8v5.2h5v4.1h-5v4.7h4.8v4.1h-4.8v5.2h5v4.1h-5V99h4.8v4.1
				H34.4z M89.8,116.1c-1,0-2-0.1-3-0.2c-11.6-1.4-20.7-10.3-22-21.8c-1.5-11.4,5.1-22.5,15.7-26.9v-7H78c-1.3,0-2.5-1.1-2.5-2.5
				v-12c0-1.3,1.1-2.5,2.5-2.5h24c1.3,0,2.5,1.1,2.5,2.5v12c0,1.3-1.1,2.5-2.5,2.5h-2.5v7.1c9.4,4.2,15.7,13.4,15.7,23.5
				c0,7.3-3.1,14.2-8.5,19C102,113.8,96,116.1,89.8,116.1z M84.5,60.6v9.5l-1.4,0.5c-9.6,3.3-15.6,13-14.3,23
				c1.1,9.6,8.7,17.1,18.4,18.2c6.1,0.7,12-1.1,16.6-5.2c4.5-4,7.1-9.8,7.1-15.9c0-8.8-5.8-16.9-14.4-20.2L95.2,70V56h5v-8.7H79.6
				V56h5v0.4h3.1v4.1L84.5,60.6L84.5,60.6z M89.7,102.9c-7.2,0-12.8-5.6-12.8-12.8c0-7.2,5.6-12.8,12.8-12.8s12.8,5.6,12.8,12.8
				S96.9,102.9,89.7,102.9z M89.7,81.4c-4.9,0-8.7,3.8-8.7,8.7c0,4.9,3.8,8.7,8.7,8.7c4.9,0,8.7-3.8,8.7-8.7
				C98.4,85.2,94.6,81.4,89.7,81.4z M92.2,92.4h-4.3v-4.1h4.3V92.4z M62.2,57.5c-5.6,0-10.1-4.5-10.1-10.1V33.5
				c0-3.2-2.6-5.8-5.8-5.8c-3.1,0-5.8,2.6-5.8,5.6v8.3h-4.1v-8.3c0-5.4,4.4-9.7,9.9-9.7s9.9,4.4,9.9,9.9v13.8c0,3.3,2.7,6,6,6
				c3.3,0,6-2.7,6-6v-12c0-6.5,5.3-11.8,11.8-11.8s11.8,5.3,11.8,11.8v5.2h-4.1v-5.2c0-4.2-3.4-7.6-7.6-7.6s-7.6,3.4-7.6,7.6v12
				C72.4,52.9,67.8,57.5,62.2,57.5z"/>
		</g>
	</g>
</g>
</svg>
