<?xml version="1.0" encoding="utf-8"?>
<!-- Generator: Adobe Illustrator 21.0.0, SVG Export Plug-In . SVG Version: 6.00 Build 0)  -->
<svg version="1.1" id="Camada_1" xmlns="http://www.w3.org/2000/svg" xmlns:xlink="http://www.w3.org/1999/xlink" x="0px" y="0px"
	 viewBox="0 0 79 76.1" style="enable-background:new 0 0 79 76.1;" xml:space="preserve">
<style type="text/css">
	.st0{fill:url(#SVGID_1_);}
	.st1{fill:url(#SVGID_2_);}
	.st2{fill:url(#SVGID_3_);}
</style>
<g>
	
		<linearGradient id="SVGID_1_" gradientUnits="userSpaceOnUse" x1="9.2" y1="47.3" x2="44.3" y2="47.3" gradientTransform="matrix(1 0 0 -1 0 78)">
		<stop  offset="0" style="stop-color:#A767FF"/>
		<stop  offset="1" style="stop-color:#F60A9E"/>
	</linearGradient>
	<path class="st0" d="M44.3,29.3c-6-1-11.3,0.2-16,4.1c-4.6,3.8-6.7,8.8-6.9,14.8c-4.2,0-8.1,0-12.2,0c0-11.7,0-23.3,0-35
		c11.7,0,23.3,0,35.1,0C44.3,18.5,44.3,23.8,44.3,29.3z"/>
	
		<linearGradient id="SVGID_2_" gradientUnits="userSpaceOnUse" x1="23.952" y1="29.6264" x2="57.8" y2="29.6264" gradientTransform="matrix(1 0 0 -1 0 78)">
		<stop  offset="0" style="stop-color:#A767FF"/>
		<stop  offset="1" style="stop-color:#F60A9E"/>
	</linearGradient>
	<path class="st1" d="M45.6,32.1c-3.1,5.8-6.2,11.5-9.4,17.5c7.3,0,14.4,0,21.6,0c-0.4,9.4-9.4,16.9-18.6,15.6
		c-10.3-1.4-17.1-10.8-14.8-20.7C26.5,35.2,36.4,29.3,45.6,32.1z"/>
	
		<linearGradient id="SVGID_3_" gradientUnits="userSpaceOnUse" x1="40.3513" y1="46.35" x2="73.2705" y2="46.35" gradientTransform="matrix(1 0 0 -1 0 78)">
		<stop  offset="0" style="stop-color:#A767FF"/>
		<stop  offset="1" style="stop-color:#F60A9E"/>
	</linearGradient>
	<path class="st2" d="M40.4,47.1c5.6-10.5,11-20.6,16.5-30.9c5.5,10.4,10.9,20.6,16.5,30.9C62.2,47.1,51.4,47.1,40.4,47.1z"/>
</g>
</svg>
