<?xml version="1.0" encoding="utf-8"?>
<!-- Generator: Adobe Illustrator 17.0.0, SVG Export Plug-In . SVG Version: 6.00 Build 0)  -->
<!DOCTYPE svg PUBLIC "-//W3C//DTD SVG 1.1//EN" "http://www.w3.org/Graphics/SVG/1.1/DTD/svg11.dtd">
<svg version="1.1" id="Camada_1" xmlns="http://www.w3.org/2000/svg" xmlns:xlink="http://www.w3.org/1999/xlink" x="0px" y="0px"
	 width="612px" height="612px" viewBox="0 13.5 612 612" enable-background="new 0 13.5 612 612" xml:space="preserve">
<g>
	<path fill="#FFFFFF" d="M510.408,345.204c-4.896,37.944-19.584,72.216-42.228,100.368l72.216,72.216
		c40.392-47.124,66.096-107.1,71.604-172.584H510.408L510.408,345.204z"/>
	<path fill="#FFFFFF" d="M331.704,522.684V625.5c65.484-5.508,125.46-31.212,172.584-71.604l-72.216-72.216
		C403.308,503.712,369.036,518.4,331.704,522.684z"/>
	<path fill="#FFFFFF" d="M181.152,480.456l-73.44,73.44c47.124,40.392,107.1,66.096,172.584,71.604V522.072
		C243.576,517.176,209.304,502.488,181.152,480.456z"/>
	<path fill="#FFFFFF" d="M104.652,345.204H0.612c5.508,65.484,31.212,125.46,71.604,172.584l73.44-73.44
		C123.624,416.196,108.936,381.924,104.652,345.204z"/>
	<path fill="#FFFFFF" d="M145.044,194.652l-73.44-73.44c-39.78,47.736-66.096,107.1-70.992,172.584h104.04
		C108.936,257.076,123.624,222.804,145.044,194.652z"/>
	<path fill="#FFFFFF" d="M280.296,116.928V13.5c-65.484,5.508-124.848,31.824-172.584,71.604l73.44,73.44
		C209.304,136.512,243.576,121.824,280.296,116.928z"/>
	<path fill="#FFFFFF" d="M524.484,235.044L501.84,212.4l89.964-89.352c24.48-24.48,24.48-64.872,0-89.964
		c-24.48-24.48-64.872-24.48-89.964,0l-89.352,89.964l-22.644-22.644c-12.24-12.24-32.436-12.24-44.676,0l0,0
		c-12.24,12.24-12.24,32.436,0,44.676l22.644,22.644L255.816,279.72c-12.24,12.24-22.644,36.72-23.256,53.856l-0.612,14.688
		l5.508,39.168l39.168,5.508l14.688-0.612c17.748-0.612,41.616-11.016,53.856-23.256l111.996-111.996l22.644,22.644
		c12.24,12.24,32.436,12.24,44.676,0l0,0C537.336,267.48,537.336,247.284,524.484,235.044z M323.136,347.04
		c-6.732,6.732-23.256,13.464-32.436,14.076h-1.224l-25.092-25.092V334.8c0-9.18,7.344-25.704,14.076-32.436l111.996-111.996
		l44.676,44.676L323.136,347.04z"/>
</g>
</svg>
