<?xml version="1.0" encoding="utf-8"?>
<!-- Generator: Adobe Illustrator 21.0.0, SVG Export Plug-In . SVG Version: 6.00 Build 0)  -->
<svg version="1.1" id="Camada_1" xmlns="http://www.w3.org/2000/svg" xmlns:xlink="http://www.w3.org/1999/xlink" x="0px" y="0px"
	 viewBox="0 0 100 125" style="enable-background:new 0 0 100 125;" xml:space="preserve">
<style type="text/css">
	.st0{fill:#FFFFFF;}
</style>
<path class="st0" d="M83.4,54.2c-0.8,6.2-3.2,11.8-6.9,16.4l11.8,11.8c6.6-7.7,10.8-17.5,11.7-28.2L83.4,54.2L83.4,54.2z"/>
<path class="st0" d="M54.2,83.2v16.8c10.7-0.9,20.5-5.1,28.2-11.7L70.6,76.5C65.9,80.1,60.3,82.5,54.2,83.2z"/>
<path class="st0" d="M29.6,76.3l-12,12c7.7,6.6,17.5,10.8,28.2,11.7V83.1C39.8,82.3,34.2,79.9,29.6,76.3z"/>
<path class="st0" d="M17.1,54.2h-17c0.9,10.7,5.1,20.5,11.7,28.2l12-12C20.2,65.8,17.8,60.2,17.1,54.2z"/>
<path class="st0" d="M23.7,29.6l-12-12C5.2,25.4,0.9,35.1,0.1,45.8h17C17.8,39.8,20.2,34.2,23.7,29.6z"/>
<path class="st0" d="M45.8,16.9V0C35.1,0.9,25.4,5.2,17.6,11.7l12,12C34.2,20.1,39.8,17.7,45.8,16.9z"/>
<path class="st0" d="M85.7,36.2l-3.7-3.7l14.7-14.6c4-4,4-10.6,0-14.7c-4-4-10.6-4-14.7,0L67.4,17.9l-3.7-3.7c-2-2-5.3-2-7.3,0l0,0
	c-2,2-2,5.3,0,7.3l3.7,3.7L41.8,43.5c-2,2-3.7,6-3.8,8.8l-0.1,2.4l0.9,6.4l6.4,0.9l2.4-0.1c2.9-0.1,6.8-1.8,8.8-3.8l18.3-18.3
	l3.7,3.7c2,2,5.3,2,7.3,0l0,0C87.8,41.5,87.8,38.2,85.7,36.2z M52.8,54.5c-1.1,1.1-3.8,2.2-5.3,2.3l-0.2,0l-4.1-4.1l0-0.2
	c0-1.5,1.2-4.2,2.3-5.3l18.3-18.3l7.3,7.3L52.8,54.5z"/>
</svg>
