<?xml version="1.0" encoding="utf-8"?>
<!-- Generator: Adobe Illustrator 21.0.0, SVG Export Plug-In . SVG Version: 6.00 Build 0)  -->
<svg version="1.1" id="Camada_1" xmlns="http://www.w3.org/2000/svg" xmlns:xlink="http://www.w3.org/1999/xlink" x="0px" y="0px"
	 viewBox="0 0 64 64" style="enable-background:new 0 0 64 64;" xml:space="preserve">
<style type="text/css">
	.st0{fill:#FFFFFF;stroke:url(#XMLID_3_);stroke-miterlimit:10;}
	.st1{fill:#DDCDFF;}
	.st2{fill:none;stroke:url(#XMLID_4_);stroke-width:2;stroke-miterlimit:10;}
	.st3{fill:#CDDCFF;stroke:#D31FFF;stroke-width:1.5;stroke-miterlimit:10;}
</style>
<g id="icons">
	<g id="XMLID_2_">
		
			<linearGradient id="XMLID_3_" gradientUnits="userSpaceOnUse" x1="13.5755" y1="-980" x2="49.7" y2="-980" gradientTransform="matrix(1 0 0 -1 0 -948)">
			<stop  offset="0" style="stop-color:#A767FF"/>
			<stop  offset="1" style="stop-color:#F60A9E"/>
		</linearGradient>
		<path id="XMLID_76_" class="st0" d="M14.2,48.3l1.7-9.2c-1-2.2-1.5-4.6-1.5-7.1c0-9.6,7.8-17.4,17.4-17.4S49.2,22.4,49.2,32
			s-7.8,17.4-17.4,17.4c-3.4,0-6.6-1-9.2-2.7L14.2,48.3z"/>
		<path id="XMLID_286_" class="st1" d="M31.9,14.6c-5.6,0-10.5,2.6-13.7,6.7c3-2.3,6.7-3.7,10.7-3.7c9.6,0,17.4,7.8,17.4,17.4
			c0,4-1.4,7.8-3.7,10.7c4.1-3.2,6.7-8.1,6.7-13.7C49.3,22.4,41.5,14.6,31.9,14.6z"/>
		
			<linearGradient id="XMLID_4_" gradientUnits="userSpaceOnUse" x1="9.2917" y1="2059.95" x2="54.7083" y2="2059.95" gradientTransform="matrix(1 0 0 1 0 -2028)">
			<stop  offset="0" style="stop-color:#A767FF"/>
			<stop  offset="1" style="stop-color:#F60A9E"/>
		</linearGradient>
		<path id="XMLID_25_" class="st2" d="M14.2,48.3l1.7-9.2c-1-2.2-1.5-4.6-1.5-7.1c0-9.6,7.8-17.4,17.4-17.4S49.2,22.4,49.2,32
			s-7.8,17.4-17.4,17.4c-3.4,0-6.6-1-9.2-2.7L14.2,48.3z M32,53.7c4.8,0,9.3-1.6,12.9-4.3 M47.4,47.4c3.1-3.1,5.3-7.2,6.1-11.8
			 M53.7,32c0-3.6-0.9-7-2.4-9.9 M49.6,19.3c-0.7-0.9-1.1-1.6-2.3-2.8 M47.4,16.6c-3.9-3.9-9.4-6.4-15.4-6.4s-11.4,2.4-15.4,6.4
			c-3.9,3.9-6.4,9.4-6.4,15.4"/>
	</g>
</g>
<path class="st3" d="M29.5,26.6c-0.4-0.4-0.6-0.9-0.6-1.4c0-0.6,0.2-1,0.7-1.4c0.4-0.4,1-0.6,1.5-0.6c0.6,0,1.1,0.2,1.6,0.6
	c0.4,0.4,0.7,0.9,0.7,1.4c0,0.6-0.2,1.1-0.7,1.4c-0.4,0.4-1,0.6-1.6,0.6S30,27,29.5,26.6z"/>
<path class="st3" d="M29.9,38.7C29.3,38,29,37,29,35.8v-6.1h4.2v5.9c0,0.3,0.1,0.5,0.2,0.7c0.2,0.2,0.4,0.2,0.6,0.2
	c0.3,0,0.5-0.1,0.8-0.2l0.2,2.8c-0.3,0.2-0.7,0.4-1.1,0.5c-0.5,0.1-1,0.2-1.5,0.2C31.4,39.7,30.6,39.4,29.9,38.7z"/>
</svg>
