<?xml version="1.0" encoding="utf-8"?>
<!-- Generator: Adobe Illustrator 21.0.0, SVG Export Plug-In . SVG Version: 6.00 Build 0)  -->
<svg version="1.1" id="Camada_1" xmlns="http://www.w3.org/2000/svg" xmlns:xlink="http://www.w3.org/1999/xlink" x="0px" y="0px"
	 viewBox="0 0 27 27" style="enable-background:new 0 0 27 27;" xml:space="preserve">
<style type="text/css">
	.st0{fill:#1F1A21;}
</style>
<path class="st0" d="M13.5,0C6,0,0,6,0,13.5C0,21,6,27,13.5,27S27,21,27,13.5C27,6,21,0,13.5,0z M13.5,6c1.3,0,2.3,1,2.3,2.3
	s-1,2.3-2.3,2.3s-2.3-1-2.3-2.3S12.2,6,13.5,6z M16.5,19.8c0,0.4-0.3,0.7-0.7,0.7h-4.8c-0.4,0-0.7-0.3-0.7-0.7v-1.3
	c0-0.4,0.3-0.7,0.7-0.7h0.7v-3.5h-0.7c-0.4,0-0.7-0.3-0.7-0.7v-1.3c0-0.4,0.3-0.7,0.7-0.7h3.5c0.4,0,0.7,0.3,0.7,0.7v5.4h0.7
	c0.4,0,0.7,0.3,0.7,0.7V19.8z"/>
</svg>
