<?xml version="1.0" encoding="utf-8"?>
<!-- Generator: Adobe Illustrator 21.0.0, SVG Export Plug-In . SVG Version: 6.00 Build 0)  -->
<svg version="1.1" id="Camada_1" xmlns="http://www.w3.org/2000/svg" xmlns:xlink="http://www.w3.org/1999/xlink" x="0px" y="0px"
	 viewBox="0 0 556.8 559.2" style="enable-background:new 0 0 556.8 559.2;" xml:space="preserve">
<g>
	<path d="M537,280.9c0,39.4,1.4,78.8-0.3,118.1c-3.5,79.7-58.7,135.7-138.5,138c-78.3,2.2-156.8,1.9-235.1,0
		c-64.7-1.5-113.3-38.6-130.5-97.7c-6.3-21.7-8.9-45.2-9.1-67.9c-0.7-69.3-0.6-138.6,1.7-207.8C26.7,116,46,75.9,87.1,48.8
		c21.8-14.4,46.4-22.8,72-23.1c81.3-1.1,162.7-3,243.8,0.4c78.2,3.3,130.4,59.4,133.8,137.8C538.4,202.8,537,241.9,537,280.9z
		 M490.9,280.9c0-36.8,1.1-73.7-0.2-110.5c-2.2-60.9-37.9-97.5-98.6-98.8C318,70,244,70,170,71.5c-60.8,1.2-97.6,37.9-98.9,98.5
		c-1.5,74-1.5,148.1,0,222.1c1.2,60.4,37.2,97.2,97.4,98.7c75.1,1.9,150.2,1.8,225.3,0c55.7-1.4,88.8-31.6,95-86.5"/>
	<path d="M413.7,281.1c0.1,72.9-60.1,133.1-133,133c-73-0.1-133-60.5-132.7-133.3c0.3-72.6,59.9-132.1,132.4-132.4
		C353.4,148.2,413.6,208.1,413.7,281.1z M281.3,195.4c-48-0.2-86.3,37.8-86.4,85.7c-0.1,47.6,37.4,85.6,84.9,86.1
		c48.1,0.5,86.5-37.2,86.9-85.2C367.1,233.9,329.3,195.6,281.3,195.4z"/>
	<path d="M449.6,143.2c0,17.4-13.8,31.1-31.2,30.9c-16.8-0.2-30.3-13.9-30.3-30.7c-0.1-17.4,13.8-31,31.2-30.8
		C436.2,112.7,449.5,126.2,449.6,143.2z"/>
</g>
</svg>
