<?xml version="1.0" encoding="utf-8"?>
<!-- Generator: Adobe Illustrator 21.0.0, SVG Export Plug-In . SVG Version: 6.00 Build 0)  -->
<svg version="1.1" id="Camada_1" xmlns="http://www.w3.org/2000/svg" xmlns:xlink="http://www.w3.org/1999/xlink" x="0px" y="0px"
	 viewBox="0 0 64 64" style="enable-background:new 0 0 64 64;" xml:space="preserve">
<style type="text/css">
	.st0{fill:none;stroke:#FFFFFF;stroke-width:2;stroke-miterlimit:10;}
</style>
<g id="icons_1_">
	<g id="XMLID_608_">
		<path id="XMLID_9_" class="st0" d="M35.8,25.1h7.8l2.7-3l0,0h8.6l0,0l-4,5v23.5c0,0.1-0.1,0.2-0.2,0.2h-38c-0.1,0-0.2-0.1-0.2-0.2
			V25.1H21 M19.2,25.1l-3.5-4.8l0,0H9.5c0,0-0.1,0.1,0,0.1l3.2,4.7 M43.6,50.8V27.4 M49.1,27.4h-3.3 M23.5,23.7V29h-3.9
			c-0.1,0-0.2,0.2-0.1,0.3l8.9,8.9c0.1,0.1,0.2,0.1,0.2,0l8.9-8.9c0.1-0.1,0-0.3-0.1-0.3h-3.9v-5.1 M35.3,21.1l1.8,1.8
			c0,0,0.1,0,0.2,0l6.9-6.9c0.1-0.1,0-0.2-0.1-0.2h-3V7.3 M33.4,8.1v15.8 M28.4,17.1v15.8"/>
	</g>
</g>
</svg>
