<?xml version="1.0" encoding="utf-8"?>
<!-- Generator: Adobe Illustrator 21.0.0, SVG Export Plug-In . SVG Version: 6.00 Build 0)  -->
<svg version="1.1" id="Camada_1" xmlns="http://www.w3.org/2000/svg" xmlns:xlink="http://www.w3.org/1999/xlink" x="0px" y="0px"
	 viewBox="0 0 64 64" style="enable-background:new 0 0 64 64;" xml:space="preserve">
<style type="text/css">
	.st0{fill:#FFFFFF;}
	.st1{fill:#DDE7FF;}
	.st2{fill:#DDE7FF;stroke:url(#XMLID_2_);stroke-miterlimit:10;}
	.st3{fill:#DDCDFF;}
	.st4{fill:none;stroke:url(#XMLID_3_);stroke-width:2;stroke-miterlimit:10;}
</style>
<g id="icons_1_">
	<g id="XMLID_608_">
		<path id="XMLID_653_" class="st0" d="M54.9,22.1h-8.6l0,0l-2.7,3h-7.8H21.1h-8.5v25.5c0,0.1,0.1,0.2,0.2,0.2h38
			c0.1,0,0.2-0.1,0.2-0.2V27.1L54.9,22.1L54.9,22.1z"/>
		<path id="XMLID_663_" class="st1" d="M54.9,22.1h-8.4l-3,3v25.5c0,0.1-0.1,0.2-0.2,0.2h7.5c0.1,0,0.2-0.1,0.2-0.2V27.1L54.9,22.1
			L54.9,22.1z"/>
		
			<linearGradient id="XMLID_2_" gradientUnits="userSpaceOnUse" x1="9.0848" y1="1036.7" x2="20.2126" y2="1036.7" gradientTransform="matrix(1 0 0 1 0 -1014)">
			<stop  offset="0" style="stop-color:#A767FF"/>
			<stop  offset="1" style="stop-color:#F60A9E"/>
		</linearGradient>
		<path id="XMLID_652_" class="st2" d="M15.7,20.3C15.6,20.3,15.6,20.3,15.7,20.3H9.6c0,0-0.1,0.1,0,0.1l3.2,4.7h6.4L15.7,20.3z"/>
		<path id="XMLID_679_" class="st0" d="M43.8,16.8l-6.3,6.3h-0.1h-0.1L31,16.8c-0.1-0.1,0-0.2,0.1-0.2h2.8V7.2H41v9.4h2.8
			C43.9,16.6,43.9,16.7,43.8,16.8z"/>
		<path id="XMLID_678_" class="st1" d="M31.1,16.8c-0.1-0.1,0-0.2,0.1-0.2H34V7.2h2.2v14.7L31.1,16.8z"/>
		<path id="XMLID_677_" class="st3" d="M37.2,29.6l-8.7,8.7h-0.1h-0.1l-8.7-8.7c-0.1-0.1,0-0.2,0.1-0.2h3.9V7.2h9.6v22.2h3.9
			C37.2,29.4,37.2,29.5,37.2,29.6z"/>
		
			<linearGradient id="XMLID_3_" gradientUnits="userSpaceOnUse" x1="8.4556" y1="1043.55" x2="56.9806" y2="1043.55" gradientTransform="matrix(1 0 0 1 0 -1014)">
			<stop  offset="0" style="stop-color:#A767FF"/>
			<stop  offset="1" style="stop-color:#F60A9E"/>
		</linearGradient>
		<path id="XMLID_9_" class="st4" d="M35.8,25.1h7.8l2.7-3l0,0h8.6l0,0l-4,5v23.5c0,0.1-0.1,0.2-0.2,0.2h-38c-0.1,0-0.2-0.1-0.2-0.2
			V25.1H21 M19.2,25.1l-3.5-4.8l0,0H9.5c0,0-0.1,0.1,0,0.1l3.2,4.7 M43.6,50.8V27.4 M49.1,27.4h-3.3 M23.5,23.7V29h-3.9
			c-0.1,0-0.2,0.2-0.1,0.3l8.9,8.9c0.1,0.1,0.2,0.1,0.2,0l8.9-8.9c0.1-0.1,0-0.3-0.1-0.3h-3.9v-5.1 M35.3,21.1l1.8,1.8
			c0,0,0.1,0,0.2,0l6.9-6.9c0.1-0.1,0-0.2-0.1-0.2h-3V7.3 M33.4,8.1v15.8 M28.4,17.1v15.8"/>
	</g>
</g>
</svg>
