<?xml version="1.0" encoding="utf-8"?>
<!-- Generator: Adobe Illustrator 21.0.0, SVG Export Plug-In . SVG Version: 6.00 Build 0)  -->
<svg version="1.1" id="Camada_1" xmlns="http://www.w3.org/2000/svg" xmlns:xlink="http://www.w3.org/1999/xlink" x="0px" y="0px"
	 viewBox="0 0 141.3 141" style="enable-background:new 0 0 141.3 141;" xml:space="preserve">
<style type="text/css">
	.st0{fill:#FFFFFF;}
	.st1{fill:#DDE7FF;}
	.st2{fill:url(#SVGID_1_);}
	.st3{fill:#DDCDFF;}
	.st4{fill:url(#SVGID_2_);}
</style>
<g id="icons_8_">
	<g id="XMLID_10_">
		<g id="XMLID_653_">
			<path class="st0" d="M121.2,56.2h-17.8l0,0l-5.6,6.2H81.8H51.4H33.8v52.7c0,0.2,0.2,0.4,0.4,0.4h78.6c0.2,0,0.4-0.2,0.4-0.4V66.5
				L121.2,56.2L121.2,56.2z"/>
		</g>
		<g id="XMLID_12_">
			<path class="st1" d="M121.2,56.2h-17.4l-6.2,6.2v52.7c0,0.2-0.2,0.4-0.4,0.4h15.5c0.2,0,0.4-0.2,0.4-0.4V66.5L121.2,56.2
				L121.2,56.2z"/>
		</g>
		<g id="XMLID_652_">
			<path class="st1" d="M40.2,52.4C40,52.4,40,52.4,40.2,52.4H27.6c0,0-0.2,0.2,0,0.2l6.6,9.7h13.2L40.2,52.4z"/>
			
				<linearGradient id="SVGID_1_" gradientUnits="userSpaceOnUse" x1="26.5104" y1="-885.3969" x2="49.5211" y2="-885.3969" gradientTransform="matrix(1 0 0 -1 0 -828)">
				<stop  offset="0" style="stop-color:#A767FF"/>
				<stop  offset="1" style="stop-color:#F60A9E"/>
			</linearGradient>
			<path class="st2" d="M49.5,63.4H33.6L27,53.7h-0.1L26.5,53c-0.2-0.4-0.1-0.9,0.3-1.3l0.3-0.3h13.4l0.5,0.4L49.5,63.4z M34.7,61.3
				h10.7l-5.7-7.9H29.4L34.7,61.3z"/>
		</g>
		<g id="XMLID_679_">
			<path class="st0" d="M98.3,45.2l-13,13h-0.2h-0.2l-13-13c-0.2-0.2,0-0.4,0.2-0.4h5.8V25.3h14.7v19.4h5.8
				C98.5,44.8,98.5,45,98.3,45.2z"/>
		</g>
		<g id="XMLID_678_">
			<path class="st1" d="M72,45.2c-0.2-0.2,0-0.4,0.2-0.4H78V25.3h4.5v30.4L72,45.2z"/>
		</g>
		<g id="XMLID_677_">
			<path class="st3" d="M84.6,71.7l-18,18h-0.2h-0.2l-18-18c-0.2-0.2,0-0.4,0.2-0.4h8.1V25.3h19.8v45.9h8.1
				C84.6,71.3,84.6,71.5,84.6,71.7z"/>
		</g>
		<g id="XMLID_11_">
			
				<linearGradient id="SVGID_2_" gradientUnits="userSpaceOnUse" x1="25.209" y1="-899.5603" x2="125.5475" y2="-899.5603" gradientTransform="matrix(1 0 0 -1 0 -828)">
				<stop  offset="0" style="stop-color:#A767FF"/>
				<stop  offset="1" style="stop-color:#F60A9E"/>
			</linearGradient>
			<path class="st4" d="M112.6,117.6H34c-1.3,0-2.5-1.1-2.5-2.5V62.4l-5.2-7.7H26l-0.6-1.3c-0.3-0.8-0.1-1.8,0.5-2.4l0.6-0.6h14.7
				l7.2,9.9h2.7v4.1H35.6v49h60.2V67.1h4.1v46.3h11V65.8l6-7.5h-12.6l-5.6,6.2h-17v-4.1H97l5.6-6.2h23L115,67.2v47.9
				C115,116.4,113.9,117.6,112.6,117.6z M35.1,60.3h8.3l-4.2-5.8h-8L35.1,60.3z M66.7,91.7c-0.6,0-1.2-0.3-1.7-0.8L46.6,72.5
				c-0.7-0.7-0.9-1.7-0.5-2.6c0.4-0.9,1.2-1.5,2.2-1.5h6v-8.9h4.1v13h-6l14.2,14.2l14.2-14.2h-6V59.9h4.1v8.5h6
				c0.9,0,1.8,0.6,2.2,1.5c0.4,0.9,0.2,2-0.5,2.6L68.9,90.3v0.5l-1.3,0.7C67.3,91.6,67,91.7,66.7,91.7z M49.5,69.6L49.5,69.6
				C49.5,69.6,49.5,69.6,49.5,69.6z M68.5,78.5h-4.1V45.8h4.1V78.5z M109.3,69.2h-6.8V65h6.8V69.2z M85.7,59.9h-2.1l-4.3-4.3
				l2.9-2.9l2.5,2.5l9.9-9.9h-3.9V25.6h4.1v15.5h4.1c1,0,1.8,0.6,2.2,1.4c0.4,0.9,0.2,1.8-0.5,2.5L85.7,59.9z M78.9,59.9h-4.1V27.2
				h4.1V59.9z"/>
		</g>
	</g>
</g>
</svg>
