<?xml version="1.0" encoding="utf-8"?>
<!-- Generator: Adobe Illustrator 21.0.0, SVG Export Plug-In . SVG Version: 6.00 Build 0)  -->
<svg version="1.1" id="Camada_1" xmlns="http://www.w3.org/2000/svg" xmlns:xlink="http://www.w3.org/1999/xlink" x="0px" y="0px"
	 viewBox="0 0 79 76.1" style="enable-background:new 0 0 79 76.1;" xml:space="preserve">
<style type="text/css">
	.st0{fill:url(#SVGID_1_);}
	.st1{fill:url(#SVGID_2_);}
	.st2{fill:url(#SVGID_3_);}
	.st3{fill:url(#SVGID_4_);}
</style>
<g>
	
		<linearGradient id="SVGID_1_" gradientUnits="userSpaceOnUse" x1="2.1" y1="39.65" x2="78.8906" y2="39.65" gradientTransform="matrix(1 0 0 -1 0 78)">
		<stop  offset="0" style="stop-color:#A767FF"/>
		<stop  offset="1" style="stop-color:#F60A9E"/>
	</linearGradient>
	<path class="st0" d="M75.2,63.6c-23.1,0-46.2,0-69.3,0c-0.1-0.1-0.2-0.2-0.3-0.3c-1.2-0.9-2.3-1.8-3.5-2.7c0-0.6,0-1.3,0-1.9
		c2.2,0,4.3,0,6.5,0c0,0,0,0,0.1-0.1c0-0.2,0-0.3,0-0.5c0-13.9,0-27.8,0.1-41.7c0-0.1,0-0.3,0-0.4c0.5-1,1-1.9,2-2.4
		c0.3-0.2,0.7-0.3,1.1-0.3c0.7-0.1,1.5-0.1,2.2-0.1c6.8,0,13.6-0.1,20.4-0.1c0.2,0,0.3,0,0.5,0c4.6,0,9.1,0,13.7,0
		c0.1,0,0.3,0,0.4,0c3.2,0,6.3,0,9.5,0c3.5,0,7.1,0.1,10.6,0.2c0.3,0,0.7,0.1,1,0.3c0.5,0.4,1,0.8,1.4,1.3c0.5,0.6,0.7,1.3,0.7,2.1
		c0,13.7,0,27.5,0.1,41.2c0,0.1,0,0.3,0,0.5c2.2,0,4.4,0,6.6,0c0,0.7,0,1.3,0,2c-0.1,0.1-0.2,0.1-0.3,0.2c-1,0.8-2,1.5-3,2.3
		C75.4,63.3,75.3,63.5,75.2,63.6z M13.5,18c0,13.6,0,27.2,0,40.8c0.2,0,0.3,0,0.4,0c6.3,0,12.6,0,18.9,0c0.5,0,0.8,0.1,1,0.6
		c0.3,0.8,0.9,1.1,1.6,1.1c0.5,0,1,0.1,1.4,0.1c3,0,6,0,9-0.1c0.1,0,0.3,0,0.3-0.1c0.4-0.4,0.8-0.8,1.1-1.3c0.2-0.3,0.3-0.4,0.6-0.4
		c6.4,0,12.7,0,19.1,0c0.2,0,0.3,0,0.5,0c0-13.6,0-27.2,0-40.8C49.5,18,31.5,18,13.5,18z"/>
	
		<linearGradient id="SVGID_2_" gradientUnits="userSpaceOnUse" x1="18.9" y1="48.2" x2="62.1" y2="48.2" gradientTransform="matrix(1 0 0 -1 0 78)">
		<stop  offset="0" style="stop-color:#A767FF"/>
		<stop  offset="1" style="stop-color:#F60A9E"/>
	</linearGradient>
	<path class="st1" d="M62.1,21.8c0,5.3,0,10.6,0,16c-14.4,0-28.8,0-43.2,0c0-5.3,0-10.6,0-16C33.3,21.8,47.7,21.8,62.1,21.8z"/>
	
		<linearGradient id="SVGID_3_" gradientUnits="userSpaceOnUse" x1="18.9" y1="34.4" x2="62.1" y2="34.4" gradientTransform="matrix(1 0 0 -1 0 78)">
		<stop  offset="0" style="stop-color:#A767FF"/>
		<stop  offset="1" style="stop-color:#F60A9E"/>
	</linearGradient>
	<path class="st2" d="M18.9,46c0-1.6,0-3.2,0-4.8c0.1,0,0.3,0,0.4,0c14.1,0,28.2,0,42.3,0c0.4,0,0.5,0.1,0.5,0.5c0,1.3,0,2.6,0,3.9
		c0,0.1,0,0.3,0,0.4C47.7,46,33.3,46,18.9,46z"/>
	
		<linearGradient id="SVGID_4_" gradientUnits="userSpaceOnUse" x1="18.9" y1="26.25" x2="62.056" y2="26.25" gradientTransform="matrix(1 0 0 -1 0 78)">
		<stop  offset="0" style="stop-color:#A767FF"/>
		<stop  offset="1" style="stop-color:#F60A9E"/>
	</linearGradient>
	<path class="st3" d="M62.1,54.1c-14.4,0-28.8,0-43.2,0c0-1.6,0-3.2,0-4.7c14.4,0,28.8,0,43.2,0C62.1,50.9,62.1,52.5,62.1,54.1z"/>
</g>
</svg>
