<?xml version="1.0" encoding="utf-8"?>
<!-- Generator: Adobe Illustrator 21.0.0, SVG Export Plug-In . SVG Version: 6.00 Build 0)  -->
<svg version="1.1" id="Camada_1" xmlns="http://www.w3.org/2000/svg" xmlns:xlink="http://www.w3.org/1999/xlink" x="0px" y="0px"
	 viewBox="0 0 64 64" style="enable-background:new 0 0 64 64;" xml:space="preserve">
<style type="text/css">
	.st0{fill:#FFFFFF;}
	.st1{fill:#DDE7FF;}
	.st2{fill:none;stroke:url(#XMLID_2_);stroke-width:2;stroke-miterlimit:10;}
</style>
<g id="icons">
	<g id="XMLID_407_">
		<rect id="XMLID_718_" x="11.4" y="22.5" class="st0" width="41.5" height="27.3"/>
		<path id="XMLID_721_" class="st1" d="M54.2,52.6H9.8c-0.1,0-0.2-0.1-0.2-0.2l-1-5c0-0.1,0.1-0.3,0.2-0.3h20.1l1,1H34l1-1h20.1
			c0.1,0,0.3,0.1,0.2,0.3l-1,5C54.4,52.5,54.3,52.6,54.2,52.6z"/>
		
			<linearGradient id="XMLID_2_" gradientUnits="userSpaceOnUse" x1="7.5727" y1="33.9608" x2="56.4" y2="33.9608" gradientTransform="matrix(1 0 0 -1 0 66)">
			<stop  offset="0" style="stop-color:#A767FF"/>
			<stop  offset="1" style="stop-color:#F60A9E"/>
		</linearGradient>
		<path id="XMLID_143_" class="st2" d="M22.3,33.7c-2.3-2.6-3.5-6-3.3-9.7s2-7,4.6-9.2c2.6-2.3,6-3.5,9.7-3.3s7,2,9.2,4.6
			c2.3,2.6,3.5,6,3.3,9.7s-2,7-4.6,9.2 M54.4,52.4l1-5c0-0.1-0.1-0.3-0.2-0.3H35.1l-1,1H30l-1-1H8.8c-0.1,0-0.3,0.1-0.2,0.3l1,5
			c0,0.1,0.1,0.2,0.2,0.2h44.5C54.3,52.6,54.4,52.5,54.4,52.4z M15.3,22.7h-3.9c-0.2,0-0.3,0.1-0.3,0.3v21.7 M52.9,44.7V23
			c0-0.2-0.1-0.3-0.3-0.3h-4.2 M15.9,42.1h32.5v-7 M31.9,20.5c-1.9,0-3.4,1.5-3.4,3.4s1.5,3.4,3.4,3.4s3.4-1.5,3.4-3.4
			S33.7,20.5,31.9,20.5z M39.9,23.9c0-1.1-0.2-2.2-0.6-3.1c-0.4-1-1-1.8-1.7-2.6c-0.7-0.7-1.6-1.3-2.6-1.7c-1-0.4-2-0.6-3.1-0.6
			s-2.2,0.2-3.1,0.6s-1.8,1-2.6,1.7c-0.7,0.7-1.3,1.6-1.7,2.6s-0.6,2-0.6,3.1s0.2,2.2,0.6,3.1c0.4,1,1,1.8,1.7,2.6
			c0.7,0.7,1.6,1.3,2.6,1.7c1,0.4,2,0.6,3.1,0.6s2.2-0.2,3.1-0.6 M35.1,24.9v0.5c0,1.3,1.1,2.4,2.4,2.4l0,0c1.3,0,2.4-1.1,2.4-2.4
			v-1.6"/>
	</g>
</g>
</svg>
