<?xml version="1.0" encoding="utf-8"?>
<!-- Generator: Adobe Illustrator 21.0.0, SVG Export Plug-In . SVG Version: 6.00 Build 0)  -->
<svg version="1.1" id="Camada_1" xmlns="http://www.w3.org/2000/svg" xmlns:xlink="http://www.w3.org/1999/xlink" x="0px" y="0px"
	 viewBox="0 0 79 76.1" style="enable-background:new 0 0 79 76.1;" xml:space="preserve">
<style type="text/css">
	.st0{fill:url(#SVGID_1_);}
</style>
<g>
	
		<linearGradient id="SVGID_1_" gradientUnits="userSpaceOnUse" x1="15.347" y1="38.9" x2="67.6881" y2="38.9" gradientTransform="matrix(1 0 0 -1 0 78)">
		<stop  offset="0" style="stop-color:#A767FF"/>
		<stop  offset="1" style="stop-color:#F60A9E"/>
	</linearGradient>
	<path class="st0" d="M40.3,13c0.8,0,1.6,0,2.4,0c0.1,0,0.2,0,0.3,0c0.9,0.1,1.8,0.1,2.8,0.3c4.3,0.6,8.2,2.1,11.7,4.6
		c5.4,3.7,8.9,8.7,10,15.2c0.3,1.9,0.4,3.9,0,5.8c-1.3,6.8-7.2,11.8-14.1,11.8c-1.8,0-3.6,0-5.5,0c-1.8,0-3.2,0.9-3.9,2.6
		c-0.7,1.7-0.5,3.3,0.8,4.7c1,1,1.3,2.3,1.1,3.6c-0.4,2.2-2.1,3.6-4.3,3.6c-1.4,0-2.9-0.1-4.3-0.4c-5.1-0.9-9.5-3-13.3-6.5
		c-6.2-5.8-9.1-13-8.5-21.5c0.2-3,1-5.9,2.3-8.6c2.6-5.5,6.5-9.6,11.9-12.4c2.9-1.5,5.9-2.4,9.1-2.7C39.2,13.1,39.8,13.1,40.3,13z
		 M53.1,34.8c0,2.5,1.9,4.4,4.4,4.4s4.4-1.9,4.4-4.4s-1.9-4.4-4.4-4.4C55,30.5,53.1,32.3,53.1,34.8z M25.5,30.4
		c-2.5,0-4.4,1.9-4.4,4.3c0,2.5,1.9,4.4,4.3,4.4c2.5,0,4.4-1.9,4.4-4.4C29.9,32.3,28,30.5,25.5,30.4z M48.8,18.8
		c-2.5,0-4.4,1.9-4.4,4.4s1.9,4.4,4.4,4.4s4.4-1.9,4.4-4.4C53.1,20.7,51.2,18.8,48.8,18.8z M38.6,23.2c0-2.5-1.9-4.4-4.4-4.4
		s-4.4,1.9-4.4,4.4s1.9,4.4,4.4,4.4C36.7,27.5,38.6,25.6,38.6,23.2z"/>
</g>
</svg>
