<?xml version="1.0" encoding="utf-8"?>
<!-- Generator: Adobe Illustrator 21.0.0, SVG Export Plug-In . SVG Version: 6.00 Build 0)  -->
<svg version="1.1" id="Camada_1" xmlns="http://www.w3.org/2000/svg" xmlns:xlink="http://www.w3.org/1999/xlink" x="0px" y="0px"
	 viewBox="0 0 512 523" style="enable-background:new 0 0 512 523;" xml:space="preserve">
<style type="text/css">
	.st0{fill:#4EB7B7;}
	.st1{fill:#7AD3D3;}
	.st2{fill:#AEFFFF;}
	.st3{fill:#2F3C4D;}
</style>
<polygon class="st0" points="29.6,228.6 74.6,143.1 137.6,228.6 137.6,249.6 29.6,249.6 "/>
<polygon class="st0" points="376.1,236.1 439.1,152.1 484.1,236.1 "/>
<polygon class="st0" points="355.1,249.6 270.1,477.6 484.1,255.6 "/>
<polygon class="st0" points="40.1,255.6 235.1,470.1 160.1,255.6 "/>
<polygon class="st1" points="160.1,255.6 256,486.6 355.1,249.6 "/>
<polygon class="st2" points="176.6,236.1 256,143.1 346.1,236.1 "/>
<polygon class="st1" points="83.6,143.1 151.1,236.1 235.1,143.1 "/>
<polygon class="st1" points="270.1,135.6 355.1,236.1 430.1,143.1 "/>
<g>
	<g>
		<path class="st3" d="M508.4,239.7L452,132.8c-2.4-4.6-7.2-7.5-12.5-7.5H72.6c-5.2,0-10,2.9-12.5,7.5L3.6,239.7
			c-2.8,5.4-1.9,12,2.3,16.4l239.9,249.6c6.1,5.8,14.6,5.7,20.4,0l239.9-249.6C510.3,251.7,511.2,245.1,508.4,239.7z M410.5,153.5
			L354,225.3l-65.9-71.8H410.5z M322,232.2H190l66-72L322,232.2z M223.9,153.5L158,225.3l-56.5-71.8H223.9z M74.9,165.2l52.6,66.9
			h-88L74.9,165.2z M49.2,260.4h98.2l69.5,174.5L49.2,260.4z M256.4,457.7l-78.6-197.4H335L256.4,457.7z M296.5,433.3l68.9-173h97.3
			L296.5,433.3z M384.5,232.2l52.6-66.9l35.3,66.9L384.5,232.2L384.5,232.2z"/>
		<path class="st3" d="M446.6,91.8l53.3-62.4c5.1-5.9,4.4-14.8-1.6-19.9c-5.9-5.1-14.8-4.4-19.9,1.6l-53.3,62.4
			c-5.1,5.9-4.4,14.8,1.6,19.9C433.7,99.2,442.1,96.7,446.6,91.8z"/>
		<path class="st3" d="M65.4,91.8c4.5,4.9,12.9,7.4,19.9,1.6c5.9-5.1,6.6-14,1.6-19.9L33.6,11.1c-5.1-5.9-14-6.6-19.9-1.6
			c-5.9,5.1-6.6,14-1.6,19.9L65.4,91.8z"/>
		<path class="st3" d="M256,87.6c7.8,0,14.1-6.3,14.1-14.1V16.1C270.1,8.3,263.8,2,256,2c-7.8,0-14.1,6.3-14.1,14.1v57.4
			C241.9,81.3,248.2,87.6,256,87.6z"/>
	</g>
</g>
</svg>
