<?xml version="1.0" encoding="utf-8"?>
<!-- Generator: Adobe Illustrator 21.0.0, SVG Export Plug-In . SVG Version: 6.00 Build 0)  -->
<svg version="1.1" id="Camada_1" xmlns="http://www.w3.org/2000/svg" xmlns:xlink="http://www.w3.org/1999/xlink" x="0px" y="0px"
	 viewBox="0 0 64 64" style="enable-background:new 0 0 64 64;" xml:space="preserve">
<style type="text/css">
	.st0{fill:#CDDCFF;}
	.st1{fill:#FFFFFF;stroke:url(#XMLID_2_);stroke-miterlimit:10;}
	.st2{fill:#DDCDFF;}
	.st3{fill:none;stroke:url(#XMLID_3_);stroke-width:2;stroke-miterlimit:10;}
</style>
<g id="icons">
	<g id="XMLID_424_">
		<path id="XMLID_410_" class="st0" d="M53.2,42.4H15.8c-0.1,0-0.2-0.1-0.2-0.2V16.8c0-0.1,0.1-0.1,0.1-0.1h9.7h0.1l2.7,2.7h25
			c0.1,0,0.1,0.1,0.1,0.1v22.8C53.3,42.3,53.3,42.4,53.2,42.4z"/>
		
			<linearGradient id="XMLID_2_" gradientUnits="userSpaceOnUse" x1="10.1" y1="31.45" x2="48.8" y2="31.45" gradientTransform="matrix(1 0 0 -1 0 66)">
			<stop  offset="0" style="stop-color:#A767FF"/>
			<stop  offset="1" style="stop-color:#F60A9E"/>
		</linearGradient>
		<path id="XMLID_418_" class="st1" d="M48.2,47.4H10.8c-0.1,0-0.2-0.1-0.2-0.2V21.8c0-0.1,0.1-0.1,0.1-0.1h9.7h0.1l2.7,2.7h25
			c0.1,0,0.1,0.1,0.1,0.1v22.8C48.3,47.3,48.3,47.4,48.2,47.4z"/>
		<path id="XMLID_426_" class="st2" d="M14.8,43.4c-0.1,0-0.2-0.1-0.2-0.2V21.6h-3.9c-0.1,0-0.1,0.1-0.1,0.1v25.4
			c0,0.1,0.1,0.2,0.2,0.2h37.4c0.1,0,0.1-0.1,0.1-0.1v-3.9H14.8V43.4z"/>
		
			<linearGradient id="XMLID_3_" gradientUnits="userSpaceOnUse" x1="9.6527" y1="1046.25" x2="53.9527" y2="1046.25" gradientTransform="matrix(1 0 0 1 0 -1014)">
			<stop  offset="0" style="stop-color:#A767FF"/>
			<stop  offset="1" style="stop-color:#F60A9E"/>
		</linearGradient>
		<path id="XMLID_166_" class="st3" d="M48.2,47.4H10.8c-0.1,0-0.2-0.1-0.2-0.2V21.8c0-0.1,0.1-0.1,0.1-0.1h9.7h0.1l2.7,2.7h25
			c0.1,0,0.1,0.1,0.1,0.1v22.8C48.3,47.3,48.3,47.4,48.2,47.4z M51.2,42.8h1.6c0.1,0,0.1-0.1,0.1-0.1V19.9c0-0.1-0.1-0.1-0.1-0.1
			h-25l-2.7-2.7c0,0-0.5,0-0.6,0h-9.2c-0.1,0-0.1,0.1-0.1,0.1V19 M25,35.6h-2 M26.8,35.6h2.1 M30.6,35.6h2.1 M34.4,35.6h2.1"/>
	</g>
</g>
</svg>
