<?xml version="1.0" encoding="utf-8"?>
<!-- Generator: Adobe Illustrator 21.0.0, SVG Export Plug-In . SVG Version: 6.00 Build 0)  -->
<svg version="1.1" id="Camada_1" xmlns="http://www.w3.org/2000/svg" xmlns:xlink="http://www.w3.org/1999/xlink" x="0px" y="0px"
	 viewBox="0 0 64 64" style="enable-background:new 0 0 64 64;" xml:space="preserve">
<style type="text/css">
	.st0{fill:none;stroke:#FFFFFF;stroke-width:2;stroke-miterlimit:10;}
</style>
<g id="icons">
	<g id="XMLID_424_">
		<path id="XMLID_166_" class="st0" d="M48.2,47.4H10.8c-0.1,0-0.2-0.1-0.2-0.2V21.8c0-0.1,0.1-0.1,0.1-0.1h9.7h0.1l2.7,2.7h25
			c0.1,0,0.1,0.1,0.1,0.1v22.8C48.3,47.3,48.3,47.4,48.2,47.4z M51.2,42.8h1.6c0.1,0,0.1-0.1,0.1-0.1V19.9c0-0.1-0.1-0.1-0.1-0.1
			h-25l-2.7-2.7c0,0-0.5,0-0.6,0h-9.2c-0.1,0-0.1,0.1-0.1,0.1V19 M25,35.6h-2 M26.8,35.6h2.1 M30.6,35.6h2.1 M34.4,35.6h2.1"/>
	</g>
</g>
</svg>
