<?xml version="1.0" encoding="utf-8"?>
<!-- Generator: Adobe Illustrator 21.0.0, SVG Export Plug-In . SVG Version: 6.00 Build 0)  -->
<svg version="1.1" id="Camada_1" xmlns="http://www.w3.org/2000/svg" xmlns:xlink="http://www.w3.org/1999/xlink" x="0px" y="0px"
	 viewBox="0 0 64 64" style="enable-background:new 0 0 64 64;" xml:space="preserve">
<style type="text/css">
	.st0{fill:none;stroke:#FFFFFF;stroke-width:2;stroke-miterlimit:10;}
</style>
<g id="icons">
	<g id="XMLID_255_">
		<path id="XMLID_296_" class="st0" d="M45.5,53H18.3c-0.1,0-0.2-0.1-0.2-0.2V27.3c0-0.1,0.1-0.2,0.2-0.2h27.3
			c0.1,0,0.2,0.1,0.2,0.2v25.5C45.7,52.9,45.6,53,45.5,53z M41.5,27.1v-6.5c0-5.3-4.3-9.6-9.6-9.6l0,0c-5.3,0-9.6,4.3-9.6,9.6v6.5
			 M37.9,24.8v-4.1c0-3.3-2.7-6-6-6l0,0c-3.3,0-6,2.7-6,6v4.1 M27.7,40h-2.4 M33.1,40h-2.4 M38.5,40h-2.4"/>
	</g>
</g>
</svg>
