<?xml version="1.0" encoding="utf-8"?>
<!-- Generator: Adobe Illustrator 21.0.0, SVG Export Plug-In . SVG Version: 6.00 Build 0)  -->
<svg version="1.1" id="Camada_1" xmlns="http://www.w3.org/2000/svg" xmlns:xlink="http://www.w3.org/1999/xlink" x="0px" y="0px"
	 viewBox="0 0 64 64" style="enable-background:new 0 0 64 64;" xml:space="preserve">
<style type="text/css">
	.st0{fill:none;stroke:#FFFFFF;stroke-width:2;stroke-miterlimit:10;}
</style>
<g id="icons">
	<g id="XMLID_403_">
		<path id="XMLID_108_" class="st0" d="M46.2,48.2H9.8c-0.1,0-0.2-0.1-0.2-0.2V24c0-0.1,0.1-0.2,0.2-0.2h36.3c0.1,0,0.2,0.1,0.2,0.2
			v24C46.4,48.1,46.3,48.2,46.2,48.2z M48.3,44.2h1.8c0.1,0,0.2-0.1,0.2-0.2V20c0-0.1-0.1-0.2-0.2-0.2H13.8c-0.1,0-0.2,0.1-0.2,0.2
			v1.6 M52.3,40.2h1.8c0.1,0,0.2-0.1,0.2-0.2V16c0-0.1-0.1-0.2-0.2-0.2H17.8c-0.1,0-0.2,0.1-0.2,0.2v1.6 M46.4,42.5H34.6l-3.8-5.3
			l-4,5.3l-5.7-7.6l-6.2,7.6H9.6 M22.8,29H21 M26.8,29H25 M29,29h1.8 M33,29h1.8"/>
	</g>
</g>
</svg>
