<?xml version="1.0" encoding="utf-8"?>
<!-- Generator: Adobe Illustrator 21.0.0, SVG Export Plug-In . SVG Version: 6.00 Build 0)  -->
<svg version="1.1" id="Camada_1" xmlns="http://www.w3.org/2000/svg" xmlns:xlink="http://www.w3.org/1999/xlink" x="0px" y="0px"
	 viewBox="0 0 64 64" style="enable-background:new 0 0 64 64;" xml:space="preserve">
<style type="text/css">
	.st0{fill:#FFFFFF;}
	.st1{fill:#DDE7FF;}
	.st2{fill:#E8DDFF;}
	.st3{fill:none;stroke:url(#XMLID_2_);stroke-width:2;stroke-miterlimit:10;}
</style>
<g id="icons">
	<g id="XMLID_261_">
		<path id="XMLID_653_" class="st0" d="M26,41.6v13.1c0,0.1,0.1,0.1,0.1,0.1l6.8-3.1l6.8,3.1c0,0,0.1,0,0.1-0.1V41.6H26z"/>
		<path id="XMLID_655_" class="st1" d="M32.9,41.6v10.1H33l6.8,3.1c0,0,0.1,0,0.1-0.1V41.6H32.9z"/>
		<path id="XMLID_269_" class="st0" d="M48.3,29c0,2-1.9,3.5-2.6,5.3c-0.7,1.8-0.6,4.2-1.9,5.5c-1.3,1.3-3.8,1.2-5.5,1.9
			c-1.7,0.7-3.3,2.5-5.3,2.5s-3.5-1.9-5.3-2.6c-1.8-0.7-4.2-0.6-5.5-1.9c-1.3-1.3-1.2-3.8-1.9-5.5c-0.7-1.7-2.6-3.3-2.6-5.3
			s1.9-3.5,2.6-5.3s0.6-4.2,1.9-5.5s3.8-1.2,5.5-1.9c1.7-0.7,3.3-2.6,5.3-2.6s3.5,1.9,5.3,2.6s4.2,0.6,5.5,1.9s1.2,3.8,1.9,5.5
			C46.5,25.4,48.3,27,48.3,29z"/>
		<g id="XMLID_647_">
			<path id="XMLID_649_" class="st2" d="M36.9,23.6c0-2.1-1.7-3.8-3.8-3.8s-3.8,1.7-3.8,3.8l0.4,4.6c0,0.6,0.4,1.2,1,1.5l1.8,1.2
				h1.2l1.9-1.2c0.5-0.3,0.9-0.8,1-1.5L36.9,23.6z"/>
			<path id="XMLID_648_" class="st2" d="M40.3,34.6l-5-1.7v-2.8h-4.5v2.8l-5,1.7c-0.4,0.1-0.6,0.5-0.6,0.9v2.6H41v-2.6
				C40.9,35,40.7,34.7,40.3,34.6z"/>
		</g>
		
			<linearGradient id="XMLID_2_" gradientUnits="userSpaceOnUse" x1="13.1" y1="33.567" x2="52.9426" y2="33.567" gradientTransform="matrix(1 0 0 -1 0 66)">
			<stop  offset="0" style="stop-color:#A767FF"/>
			<stop  offset="1" style="stop-color:#F60A9E"/>
		</linearGradient>
		<path id="XMLID_380_" class="st3" d="M30.7,30.5v2.9l-5.2,1.8c-0.4,0.1-0.6,0.5-0.6,0.9V38 M35.3,30.5v2.9l5.2,1.8
			c0.4,0.1,0.6,0.5,0.6,0.9V38 M37,23.9c0-2.2-1.8-4-4-4s-4,1.8-4,4l0.4,4.7c0,0.6,0.4,1.2,1,1.5l1.9,1.3h1.3l2-1.3
			c0.6-0.3,0.9-0.9,1-1.5L37,23.9z M30.7,33.4l1.5,1.7h1.7l1.5-1.7 M45.7,23.7c-0.7-1.8-0.6-4.2-1.9-5.5c-1.3-1.3-3.8-1.2-5.5-1.9
			c-1.7-0.7-3.3-2.6-5.3-2.6s-3.5,1.9-5.3,2.6s-4.2,0.6-5.5,1.9S21,22,20.3,23.7c-0.7,1.7-2.6,3.3-2.6,5.3s1.9,3.5,2.6,5.3
			s0.6,4.2,1.9,5.5s3.8,1.2,5.5,1.9s3.3,2.6,5.3,2.6s3.5-1.9,5.3-2.6c1.8-0.7,4.2-0.6,5.5-1.9c1.3-1.3,1.2-3.8,1.9-5.5
			s2.6-3.3,2.6-5.3S46.4,25.4,45.7,23.7z M26.1,43.6v11.1c0,0.1,0.1,0.1,0.1,0.1l6.8-3.1l6.8,3.1c0,0,0.1,0,0.1-0.1V43.6 M19.8,42.4
			c0.5,0.5,1,0.9,1.6,1.4 M17.1,39.1c0.6,1,1.4,1.9,2.1,2.7 M15.1,35.1c0.4,1.1,0.9,2.1,1.4,3.1 M51.5,32.7c0.2-1.2,0.4-2.5,0.4-3.8
			C51.9,18.5,43.4,10,33,10s-18.9,8.5-18.9,18.9c0,1.9,0.3,3.7,0.8,5.4 M49.5,38.3c0.7-1.2,1.3-2.6,1.7-4 M46.2,42.4
			c0.9-0.9,1.8-1.9,2.5-3 M44.7,43.8c0.3-0.2,0.6-0.4,0.8-0.7"/>
	</g>
</g>
</svg>
