<?xml version="1.0" encoding="utf-8"?>
<!-- Generator: Adobe Illustrator 21.0.0, SVG Export Plug-In . SVG Version: 6.00 Build 0)  -->
<svg version="1.1" id="Camada_1" xmlns="http://www.w3.org/2000/svg" xmlns:xlink="http://www.w3.org/1999/xlink" x="0px" y="0px"
	 viewBox="0 0 141.3 141" style="enable-background:new 0 0 141.3 141;" xml:space="preserve">
<style type="text/css">
	.st0{fill:url(#SVGID_1_);}
	.st1{fill:url(#SVGID_2_);}
	.st2{fill:url(#SVGID_3_);}
</style>
<g id="icons_6_">
	<g id="XMLID_6_">
		<g id="XMLID_559_">
			
				<linearGradient id="SVGID_1_" gradientUnits="userSpaceOnUse" x1="22.3" y1="2057.3501" x2="123.9" y2="2057.3501" gradientTransform="matrix(1 0 0 1 0 -1952)">
				<stop  offset="0" style="stop-color:#A767FF"/>
				<stop  offset="1" style="stop-color:#F60A9E"/>
			</linearGradient>
			<path class="st0" d="M122.4,115.8H23.8c-0.8,0-1.5-0.7-1.5-1.5V96.4c0-0.8,0.7-1.5,1.5-1.5h98.6c0.8,0,1.5,0.7,1.5,1.5v17.9
				C123.9,115,123.5,115.8,122.4,115.8z M122.4,113.7v1.1V113.7L122.4,113.7z M24.4,113.7h97.3V97H24.4V113.7z"/>
		</g>
		<g id="XMLID_7_">
			
				<linearGradient id="SVGID_2_" gradientUnits="userSpaceOnUse" x1="31.4" y1="1984.45" x2="112.9" y2="1984.45" gradientTransform="matrix(1 0 0 1 0 -1952)">
				<stop  offset="0" style="stop-color:#A767FF"/>
				<stop  offset="1" style="stop-color:#F60A9E"/>
			</linearGradient>
			<path class="st1" d="M112.9,39.3H31.4V25.6h81.5V39.3z M33.5,37.2h77.3v-9.5H33.5V37.2z"/>
		</g>
		<g id="XMLID_145_">
			
				<linearGradient id="SVGID_3_" gradientUnits="userSpaceOnUse" x1="20.9" y1="2022.9" x2="124.5" y2="2022.9" gradientTransform="matrix(1 0 0 1 0 -1952)">
				<stop  offset="0" style="stop-color:#83E4BF"/>
				<stop  offset="1" style="stop-color:#7AD3D3"/>
			</linearGradient>
			<path class="st2" d="M122,116.8H23.4c-1.4,0-2.5-1.2-2.5-2.5V96.4c0-1.4,1.2-2.5,2.5-2.5H122c1.4,0,2.5,1.2,2.5,2.5v17.9
				C124.5,115.5,123.7,116.8,122,116.8z M122,112.6v2.1V112.6L122,112.6z M25.1,112.6h95.2V98.1h-6.1v5.7H110v-5.7h-5.7v5.7h-4.2
				v-5.7h-5.9v5.7H90v-5.7h-5.7v5.7H80v-5.7h-5.7v5.7h-4.2v-5.7h-5.7v5.7h-4.2v-5.7h-5.7v5.7h-4.2v-5.7h-5.7v5.7h-4.2v-5.7h-5.7v5.7
				h-4.2v-5.7H25L25.1,112.6L25.1,112.6z M114.2,92H110V40.4H34.8V92h-4.2V27.5c0-1.4,1.2-2.5,2.5-2.5h78.6c1.4,0,2.5,1.2,2.5,2.5
				V92z M34.8,36.2H110v-7H34.8V36.2z M86.8,88.6h-4.2v-16h16v4.2H86.8V88.6z M65.7,88.6h-4.2v-16h16v4.2H65.7V88.6z M44.7,88.6
				h-4.2v-16h16v4.2H44.7V88.6z M101.7,68H40.4V45.6h4.2v18.1h57.1V68z M62.6,34.3h-5.3v-4.2h5.3V34.3z M54.1,34.3h-5.3v-4.2h5.3
				V34.3z M45.7,34.3h-5.3v-4.2h5.3V34.3z"/>
		</g>
	</g>
</g>
</svg>
