<?xml version="1.0" encoding="utf-8"?>
<!-- Generator: Adobe Illustrator 21.0.0, SVG Export Plug-In . SVG Version: 6.00 Build 0)  -->
<svg version="1.1" id="Camada_1" xmlns="http://www.w3.org/2000/svg" xmlns:xlink="http://www.w3.org/1999/xlink" x="0px" y="0px"
	 viewBox="0 0 26 26" style="enable-background:new 0 0 26 26;" xml:space="preserve">
<style type="text/css">
	.st0{fill:#FFFFFF;}
</style>
<path class="st0" d="M15,19.5H11c-0.7,0-1.2-0.5-1.2-1.2V9.7H5.3C4.4,9.7,3.9,8.7,4.6,8l7.7-7.7c0.4-0.4,1-0.4,1.4,0L21.4,8
	c0.6,0.6,0.2,1.7-0.7,1.7h-4.5v8.5C16.3,19,15.7,19.5,15,19.5z M26,19.1v5.7c0,0.7-0.5,1.2-1.2,1.2H1.2C0.5,26,0,25.5,0,24.8v-5.7
	c0-0.7,0.5-1.2,1.2-1.2h6.9v0.4c0,1.6,1.3,2.8,2.8,2.8H15c1.6,0,2.8-1.3,2.8-2.8v-0.4h6.9C25.5,17.9,26,18.4,26,19.1z M19.7,23.6
	c0-0.6-0.5-1-1-1c-0.6,0-1,0.5-1,1c0,0.6,0.5,1,1,1C19.2,24.6,19.7,24.1,19.7,23.6z M23,23.6c0-0.6-0.5-1-1-1s-1,0.5-1,1
	c0,0.6,0.5,1,1,1S23,24.1,23,23.6z"/>
</svg>
