<?xml version="1.0" encoding="utf-8"?>
<!-- Generator: Adobe Illustrator 21.0.0, SVG Export Plug-In . SVG Version: 6.00 Build 0)  -->
<svg version="1.1" id="Camada_1" xmlns="http://www.w3.org/2000/svg" xmlns:xlink="http://www.w3.org/1999/xlink" x="0px" y="0px"
	 viewBox="0 0 43.7 43.7" style="enable-background:new 0 0 43.7 43.7;" xml:space="preserve">
<path d="M0,21.9C0,9.8,9.8,0,21.9,0s21.9,9.8,21.9,21.9s-9.8,21.9-21.9,21.9S0,33.9,0,21.9z M6.4,32.9c3.5,4.8,9.1,7.9,15.5,7.9
	s12-3.1,15.5-7.9c-0.3-2.4-2-4.4-4.4-5l-2.9-0.7c-2.3,2-5.2,3-8.2,3s-6-1.1-8.2-3L10.7,28C8.4,28.6,6.7,30.6,6.4,32.9z M12,17.6
	c0,5.4,4.4,9.9,9.9,9.9s9.9-4.4,9.9-9.9s-4.4-9.9-9.9-9.9S12,12.2,12,17.6z"/>
</svg>
