<?xml version="1.0" encoding="utf-8"?>
<!-- Generator: Adobe Illustrator 21.0.0, SVG Export Plug-In . SVG Version: 6.00 Build 0)  -->
<svg version="1.1" id="Camada_1" xmlns="http://www.w3.org/2000/svg" xmlns:xlink="http://www.w3.org/1999/xlink" x="0px" y="0px"
	 viewBox="0 0 141.3 141" style="enable-background:new 0 0 141.3 141;" xml:space="preserve">
<style type="text/css">
	.st0{fill:#FFFFFF;}
	.st1{fill:#DDE7FF;}
	.st2{fill:url(#SVGID_1_);}
	.st3{fill:#DDCDFF;}
	.st4{fill:url(#SVGID_2_);}
	.st5{fill:url(#SVGID_3_);}
</style>
<g id="icons_1_">
	<g id="XMLID_2_">
		<g id="XMLID_5_">
			<path class="st0" d="M116,25.3H29.5c-0.2,0-0.6,0.2-0.6,0.6v87.8h87.6V99.1V25.8C116.6,25.6,116.4,25.3,116,25.3z"/>
		</g>
		<g id="XMLID_4_">
			<path class="st1" d="M116,25.3H29.5c-0.2,0-0.6,0-0.6,0V37h74.8h12.8V25.3C116.6,25.3,116.4,25.3,116,25.3z"/>
			
				<linearGradient id="SVGID_1_" gradientUnits="userSpaceOnUse" x1="27.7" y1="1983.2" x2="117.5" y2="1983.2" gradientTransform="matrix(1 0 0 1 0 -1952)">
				<stop  offset="0" style="stop-color:#A767FF"/>
				<stop  offset="1" style="stop-color:#F60A9E"/>
			</linearGradient>
			<path class="st2" d="M117.5,38.1H27.7V24.3h88.7v1.1h1v12.7H117.5z M29.9,35.9h85.4v-9.5H29.9V35.9z"/>
		</g>
		<g id="XMLID_3_">
			<path class="st3" d="M118.6,108.8l-5.4,5.4c-0.2,0.2-0.4,0.2-0.6,0L99,100.8c-0.2-0.2-0.2-0.4,0-0.6l5.4-5.4
				c0.2-0.2,0.4-0.2,0.6,0l13.6,13.6C118.6,108.6,118.6,108.8,118.6,108.8z"/>
			
				<linearGradient id="SVGID_2_" gradientUnits="userSpaceOnUse" x1="97.6274" y1="2056.5249" x2="119.6335" y2="2056.5249" gradientTransform="matrix(1 0 0 1 0 -1952)">
				<stop  offset="0" style="stop-color:#A767FF"/>
				<stop  offset="1" style="stop-color:#F60A9E"/>
			</linearGradient>
			<path class="st4" d="M112.8,115.5c-0.4,0-0.8-0.2-1.1-0.5l-13.6-13.4c-0.6-0.6-0.6-1.5,0-2.2l5.4-5.4c0.6-0.6,1.5-0.6,2.2,0
				l13.9,13.9v1.3l-5.7,5.7C113.6,115.3,113.2,115.5,112.8,115.5z M113.3,113.4L113.3,113.4C113.3,113.5,113.3,113.5,113.3,113.4z
				 M100.1,100.5l12.7,12.5l4.4-4.4L104.6,96L100.1,100.5z"/>
		</g>
		<g id="XMLID_446_">
			<linearGradient id="SVGID_3_" gradientUnits="userSpaceOnUse" x1="26.9" y1="69.9" x2="120.7" y2="69.9">
				<stop  offset="0" style="stop-color:#A767FF"/>
				<stop  offset="1" style="stop-color:#F60A9E"/>
			</linearGradient>
			<path class="st5" d="M112.8,116.8L112.8,116.8c-0.7,0-1.3-0.3-1.9-0.8l-13.6-13.6c-1.1-1.1-1.1-2.7,0-3.7l1.3-1.3L96.2,95
				c-4.5,3.7-10.2,5.8-16.4,5.8c-14.3,0-25.9-11.6-25.9-25.9S65.5,49,79.8,49s25.9,11.6,25.9,25.9c0,6.5-2.4,12.5-6.4,17.1l2.4,2.4
				l1-1c1-1,2.6-1,3.7,0l14.3,14.3v2.2l-6,6C114.2,116.5,113.5,116.8,112.8,116.8z M114,112.9L114,112.9L114,112.9z M101.6,100.5
				l11.2,11.2l2.9-2.9l-11.1-11.1L101.6,100.5z M105.8,96.5L105.8,96.5L105.8,96.5z M79.8,53.2c-11.9,0-21.6,9.7-21.6,21.6
				s9.7,21.6,21.6,21.6s21.6-9.7,21.6-21.6S91.8,53.2,79.8,53.2z M31.2,113.6h-4.3V25.8c0-1.4,1.1-2.8,2.8-2.8h86.5
				c1.4,0,2.8,1.1,2.8,2.8v73.1h-4.3v-59H31.2V113.6z M31.2,35.5h83.5v-8.2H31.2V35.5z M56.9,95.4H37.7V75.7h13.4V80H42v11h14.9
				V95.4z M77.5,82.7l-8-8l3.1-3.1l5,5l9.7-9.7l3.1,3.1L77.5,82.7z M50.9,70.3H37.7V43.7H106v13.4h-4.3V48H42v18h8.9V70.3z
				 M61.9,33.1h-5.8v-4.3h5.8V33.1z M52.6,33.1h-5.8v-4.3h5.8V33.1z M43.5,33.1h-5.8v-4.3h5.8V33.1z"/>
		</g>
	</g>
</g>
</svg>
