<?xml version="1.0" encoding="utf-8"?>
<!-- Generator: Adobe Illustrator 21.0.0, SVG Export Plug-In . SVG Version: 6.00 Build 0)  -->
<svg version="1.1" id="Camada_1" xmlns="http://www.w3.org/2000/svg" xmlns:xlink="http://www.w3.org/1999/xlink" x="0px" y="0px"
	 viewBox="0 0 141.3 141" style="enable-background:new 0 0 141.3 141;" xml:space="preserve">
<style type="text/css">
	.st0{fill:url(#SVGID_1_);}
	.st1{fill:url(#SVGID_2_);}
</style>
<g id="icons_3_">
	<g id="XMLID_26_">
		<g id="XMLID_600_">
			
				<linearGradient id="SVGID_1_" gradientUnits="userSpaceOnUse" x1="22.35" y1="2021.65" x2="120.25" y2="2021.65" gradientTransform="matrix(1 0 0 1 0 -1952)">
				<stop  offset="0" style="stop-color:#A767FF"/>
				<stop  offset="1" style="stop-color:#F60A9E"/>
			</linearGradient>
			<path class="st0" d="M71.3,101.5c-19,0-43.7-25.7-48.5-30.9c-0.6-0.6-0.6-1.2,0-1.9c6.7-7.3,29.9-30.9,48.5-30.9
				c20.7,0,47.4,29.7,48.5,30.9c0.6,0.6,0.6,1.3,0,1.9C113,77.9,89.8,101.5,71.3,101.5z M24.7,69.7c5.8,6.2,29,29.7,46.5,29.7
				c17.4,0,39.5-22.2,46.5-29.7C114.2,65.8,89.9,40,71.2,40C53.9,39.9,31.8,62.1,24.7,69.7z M23.4,69.5l0.8,0.7
				c0-0.1,0.1-0.1,0.1-0.2L23.4,69.5z M118.2,69.2l0.9,0.5l-0.8-0.7C118.3,69.1,118.2,69.2,118.2,69.2z"/>
		</g>
		<g id="XMLID_360_">
			
				<linearGradient id="SVGID_2_" gradientUnits="userSpaceOnUse" x1="21.7" y1="2021.9" x2="121.7" y2="2021.9" gradientTransform="matrix(1 0 0 1 0 -1952)">
				<stop  offset="0" style="stop-color:#83E4BF"/>
				<stop  offset="1" style="stop-color:#7AD3D3"/>
			</linearGradient>
			<path class="st1" d="M73.3,116.8h-4.2v-9.6h4.2V116.8z M92.7,111.7l-4.8-8.4l3.6-2.1l4.8,8.4L92.7,111.7z M49.8,111.3l-3.6-2.1
				l4.8-8.4l3.6,2.1L49.8,111.3z M71.7,102.5c-19,0-42.5-23.9-49.2-31.2c-0.2-0.2-0.8-0.8-0.8-1.7s0.6-1.5,0.8-1.7
				c6.7-7.3,30.3-31.2,49.2-31.2c19,0,42.5,23.9,49.2,31.2c0.2,0.2,0.8,0.8,0.8,1.7s-0.6,1.5-0.8,1.7
				C114.2,78.6,90.6,102.5,71.7,102.5z M26.6,69.7c13.2,14.1,31.7,28.7,45.1,28.7c16.6,0,38.5-21.8,45.1-28.7
				C103.5,55.6,85,41,71.7,41C55.1,41,33.1,62.8,26.6,69.7z M25.5,70.8C25.5,70.8,25.5,70.9,25.5,70.8
				C25.5,70.9,25.5,70.8,25.5,70.8z M117.9,68.5C117.9,68.5,117.8,68.5,117.9,68.5C117.8,68.5,117.9,68.5,117.9,68.5z M75.4,95.4
				h-8.7L65.4,87c-0.9-0.3-1.7-0.6-2.5-1l-6.7,5.1L50,84.9l5.1-6.7c-0.4-0.8-0.8-1.7-1-2.5l-8.4-1.3v-8.6l8.4-1.1
				c0.3-0.8,0.6-1.7,1-2.5L50,55.4l6.2-6.2l6.7,5.1c0.8-0.4,1.7-0.8,2.5-1l1.1-8.4h8.7l1.1,8.4c0.8,0.3,1.7,0.6,2.5,1l6.7-5.1
				l6.2,6.2l-5.1,6.7c0.4,0.8,0.8,1.7,1,2.5l8.4,1.1v8.6l-8.2,1.3c-0.3,0.9-0.6,1.7-1,2.5l5.1,6.7L85.7,91L79,86
				c-0.8,0.4-1.7,0.8-2.5,1L75.4,95.4z M70.3,91.2h1.4l1-7.5l1.4-0.3c1.4-0.4,2.7-0.9,4.1-1.7l1.2-0.7l5.9,4.5l1-1l-4.5-5.9l0.7-1.2
				c0.8-1.4,1.3-2.7,1.7-4.1l0.3-1.3l7.4-1.2v-1.4l-7.6-1L83.9,67c-0.3-1.4-0.9-2.7-1.7-4.1l-0.7-1.2l4.5-5.9l-1-1l-5.9,4.5L78,58.7
				c-1.4-0.8-2.7-1.3-4.1-1.7l-1.4-0.3l-1-7.5h-1.4l-1,7.5L67.8,57c-1.4,0.3-2.7,0.9-4.1,1.7l-1.2,0.7l-5.9-4.5l-1,1l4.5,5.9
				L59.5,63c-0.8,1.4-1.3,2.7-1.7,4.1l-0.3,1.4l-7.5,1v1.4l7.6,1.2l0.3,1.3c0.3,1.4,0.9,2.7,1.7,4.1l0.7,1.2l-4.5,5.9l1,1l5.9-4.5
				l1.2,0.7c1.4,0.8,2.7,1.3,4.1,1.7l1.3,0.3L70.3,91.2z M70.6,79.5c-5.2,0-9.2-4-9.2-9.2s4-9.2,9.2-9.2v4.2c-2.8,0-5,2.2-5,5
				s2.2,5,5,5s5-2.2,5-5h4.2C79.8,75.5,75.8,79.5,70.6,79.5z M51,38.9l-4.8-8.4l3.6-2.1l4.8,8.4L51,38.9z M91.5,38.5l-3.6-2.1
				l4.8-8.4l3.6,2.1L91.5,38.5z M73.3,32.6h-4.2V23h4.2V32.6z"/>
		</g>
	</g>
</g>
</svg>
